<svg width="26" height="25" viewBox="0 0 26 25" fill="none" xmlns="http://www.w3.org/2000/svg">
<circle cx="18.3294" cy="21.806" r="2.0296" fill="#4E3A3A"/>
<circle cx="14.8365" cy="22.97" r="2.0296" fill="#4E3A3A"/>
<circle cx="10.7615" cy="22.97" r="2.0296" fill="#4E3A3A"/>
<circle cx="7.26886" cy="21.806" r="2.0296" fill="#4E3A3A"/>
<circle cx="4.35821" cy="19.4778" r="2.0296" fill="#4E3A3A"/>
<circle cx="21.24" cy="19.4778" r="2.0296" fill="#4E3A3A"/>
<circle cx="2.0296" cy="12.5075" r="2.0296" transform="rotate(-90 2.0296 12.5075)" fill="#4E3A3A"/>
<circle cx="22.9864" cy="9.01532" r="2.0296" transform="rotate(-90 22.9864 9.01532)" fill="#4E3A3A"/>
<circle cx="2.61163" cy="9.01532" r="2.0296" transform="rotate(-90 2.61163 9.01532)" fill="#4E3A3A"/>
<circle cx="4.35821" cy="5.52216" r="2.0296" transform="rotate(-90 4.35821 5.52216)" fill="#4E3A3A"/>
<circle cx="7.26886" cy="3.19403" r="2.0296" transform="rotate(-90 7.26886 3.19403)" fill="#4E3A3A"/>
<circle cx="14.8365" cy="2.02997" r="2.0296" transform="rotate(-90 14.8365 2.02997)" fill="#4E3A3A"/>
<circle cx="10.7615" cy="2.02997" r="2.0296" transform="rotate(-90 10.7615 2.02997)" fill="#4E3A3A"/>
<circle cx="18.3294" cy="3.19403" r="2.0296" transform="rotate(-90 18.3294 3.19403)" fill="#4E3A3A"/>
<circle cx="21.24" cy="5.52216" r="2.0296" transform="rotate(-90 21.24 5.52216)" fill="#4E3A3A"/>
<circle cx="22.9864" cy="16.0007" r="2.0296" transform="rotate(-90 22.9864 16.0007)" fill="#4E3A3A"/>
<circle cx="2.61163" cy="16.0007" r="2.0296" transform="rotate(-90 2.61163 16.0007)" fill="#4E3A3A"/>
<circle cx="23.5684" cy="12.5075" r="2.0296" transform="rotate(-90 23.5684 12.5075)" fill="#15E097"/>
</svg>
