<svg width="209" height="126" viewBox="0 0 209 126" fill="none" xmlns="http://www.w3.org/2000/svg">
<path d="M52.3177 84C49.4057 84 47.354 82.8333 46.1627 80.5C44.9714 78.2333 44.3758 75.5667 44.3758 72.5C44.3758 69.7667 44.7398 67.0667 45.4678 64.4C46.262 61.7333 47.1885 59.7 48.2475 58.3C46.4605 60.4333 44.2434 62.8667 41.5961 65.6C38.9487 68.3333 36.0367 70.9667 32.8599 73.5C29.6831 76.0333 26.4071 78.1333 23.0317 79.8C19.6564 81.4667 16.3141 82.3 13.005 82.3C12.0122 82.3 11.0195 82.2 10.0267 82C9.10018 81.8667 8.17361 81.6 7.24705 81.2C4.79828 80.2 2.97824 78.4333 1.78695 75.9C0.595652 73.3 0 70.2 0 66.6C0 62.8 0.628745 58.7333 1.88622 54.4C3.20988 50 5.1292 45.5333 7.64415 41C8.83545 38.8 10.1591 36.6333 11.6151 34.5C13.1373 32.3 14.7588 30.2333 16.4796 28.3C14.4279 27.3667 12.5417 26.3333 10.8209 25.2C9.10018 24 7.64415 22.7 6.45286 21.3C5.65866 20.3667 5.06301 19.2667 4.66591 18C4.26881 16.7333 4.07026 15.5 4.07026 14.3C4.07026 12.1667 4.56663 10.7667 5.55938 10.1C5.89029 9.56667 6.28739 9.3 6.75067 9.3C7.34632 9.3 7.64415 9.66667 7.64415 10.4C7.64415 10.8667 7.51178 11.3667 7.24705 11.9C6.91614 12.7667 6.75067 13.5667 6.75067 14.3C6.75067 15.3667 7.01541 16.3667 7.54488 17.3C8.07434 18.1667 8.70308 19 9.43109 19.8C11.549 22.3333 14.461 24.4333 18.1673 26.1C22.403 21.4333 27.0358 17.1333 32.0657 13.2C37.1618 9.2 42.6219 6 48.446 3.6C54.2701 1.2 60.3921 0 66.8118 0C72.1727 0 76.3753 1.2 79.4197 3.6C82.4641 5.93333 83.9863 8.96667 83.9863 12.7C83.9863 14.5 83.4569 16.4667 82.3979 18.6C81.339 20.6667 79.6183 22.7 77.2357 24.7C74.8531 26.6333 71.6763 28.3333 67.7053 29.8C63.8005 31.2 58.936 32.1667 53.1119 32.7C51.0602 32.9 49.2071 33.0667 47.5526 33.2C45.9642 33.2667 44.2434 33.3 42.3903 33.3C38.9487 33.3 35.6065 33.0667 32.3635 32.6C29.1867 32.1333 26.01 31.4 22.8332 30.4C21.6419 32.0667 20.1197 34.3333 18.2665 37.2C16.4796 40.0667 14.6926 43.1333 12.9057 46.4C11.1188 49.6667 9.62964 52.7667 8.43835 55.7C7.37942 58.5 6.58522 61.0667 6.05576 63.4C5.52629 65.6667 5.26156 67.7 5.26156 69.5C5.26156 72.7667 6.02267 75.2333 7.54488 76.9C9.06709 78.5 11.1188 79.3 13.6999 79.3C16.2149 79.3 19.0607 78.5667 22.2375 77.1C25.4805 75.6333 28.8558 73.4333 32.3635 70.5C35.8712 67.5667 39.2797 64.2667 42.5888 60.6C45.9642 56.9333 49.0417 53.2 51.8214 49.4C54.601 45.6 56.8513 42.1 58.572 38.9C59.6971 36.7667 60.7892 35.2667 61.8481 34.4C62.907 33.4667 63.8005 33 64.5285 33C65.2565 33 65.8191 33.3 66.2162 33.9C66.6133 34.4333 66.8118 35.1667 66.8118 36.1C66.8118 37.9667 65.9845 39.8333 64.33 41.7C62.4768 43.7667 60.6568 46.3 58.8699 49.3C57.0829 52.3 55.4945 55.4667 54.1047 58.8C52.7148 62.1333 51.7221 65.4 51.1264 68.6C50.9279 69.6667 50.7955 70.6667 50.7293 71.6C50.6632 72.5333 50.6301 73.3667 50.6301 74.1C50.6301 76.5667 50.9941 78.3333 51.7221 79.4C52.5163 80.4667 53.5421 81 54.7996 81C56.3218 81 58.0757 80.3 60.0611 78.9C62.0466 77.5 63.966 75.6333 65.8191 73.3C67.4075 71.1667 68.9297 68.9 70.3857 66.5C71.9079 64.1 73.2978 61.6 74.5553 59C74.7538 58.5333 75.0185 58.2 75.3494 58C75.7465 57.7333 76.0113 57.6 76.1436 57.6C76.4746 57.6 76.64 57.8 76.64 58.2C76.64 58.4667 76.5407 58.8667 76.3422 59.4C75.7465 60.7333 74.9523 62.3333 73.9596 64.2C72.9669 66.0667 71.8748 68 70.6835 70C69.4922 71.9333 68.2679 73.7333 67.0104 75.4C65.2896 77.6667 63.1056 79.6667 60.4583 81.4C57.8771 83.1333 55.1636 84 52.3177 84ZM41.4968 30.9C44.9383 30.9 48.7769 30.7 53.0127 30.3C58.5059 29.8333 63.271 28.7333 67.3082 27C71.3454 25.2667 74.456 23.0667 76.64 20.4C78.8241 17.7333 79.9161 14.7667 79.9161 11.5C79.9161 8.56667 78.6917 6.33333 76.2429 4.8C73.8603 3.26667 70.8159 2.5 67.1096 2.5C60.9546 2.5 55.3291 3.73334 50.233 6.2C45.203 8.6 40.5702 11.7667 36.3345 15.7C32.165 19.6333 28.194 23.8667 24.4216 28.4C29.4515 30.0667 35.1432 30.9 41.4968 30.9ZM96.7752 77.6C94.9882 77.6 93.4991 76.7 92.3078 74.9C91.9769 74.3667 91.6791 73.6667 91.4144 72.8C91.1496 71.9333 91.0173 70.9667 91.0173 69.9C91.0173 69.3 91.0503 68.7 91.1165 68.1C91.1827 67.4333 91.3151 66.7667 91.5136 66.1C90.5871 67.5667 89.495 69.2 88.2376 71C87.0463 72.7333 85.6564 74.2667 84.068 75.6C82.5458 76.8667 80.8251 77.5 78.9058 77.5C78.2439 77.5 77.549 77.4 76.821 77.2C75.034 76.6667 73.7435 75.7333 72.9493 74.4C72.2213 73.0667 71.8572 71.4667 71.8572 69.6C71.8572 67.5333 72.2544 65.2667 73.0486 62.8C73.9089 60.3333 74.9678 57.9333 76.2253 55.6C77.549 53.2667 78.9057 51.2667 80.2956 49.6C82.2811 47.2667 84.5644 45.4 87.1455 44C89.7267 42.6 92.3409 41.9 94.9882 41.9C97.3708 41.9 99.621 42.5333 101.739 43.8C102.732 41.9333 103.791 39.8667 104.916 37.6C106.041 35.2667 107.166 32.9667 108.291 30.7C109.416 28.4333 110.409 26.3667 111.269 24.5C112.13 22.5667 112.791 21.1 113.255 20.1C114.248 17.7667 115.174 16.3 116.034 15.7C116.961 15.0333 118.053 14.7 119.311 14.7C120.039 14.7 120.833 14.8 121.693 15C122.62 15.1333 123.513 15.1667 124.374 15.1C123.976 15.5 123.149 16.6667 121.892 18.6C120.7 20.4667 119.277 22.8667 117.623 25.8C115.968 28.7333 114.181 31.9667 112.262 35.5C110.409 38.9667 108.556 42.5 106.703 46.1C104.916 49.6333 103.228 53 101.64 56.2C100.117 59.3333 98.893 62.0333 97.9665 64.3C97.7017 64.8333 97.3046 65.9333 96.7752 67.6C96.3119 69.2 96.0803 70.6 96.0803 71.8C96.0803 72.6667 96.2788 73.4333 96.6759 74.1C97.073 74.7 97.7348 75 98.6614 75C99.9189 75 101.176 74.3667 102.434 73.1C103.757 71.7667 105.015 70.1667 106.206 68.3C107.398 66.3667 108.457 64.5 109.383 62.7C110.31 60.8333 111.005 59.3667 111.468 58.3C111.799 57.5667 112.196 57.2 112.659 57.2C113.056 57.2 113.255 57.5 113.255 58.1C113.255 58.1667 113.255 58.3 113.255 58.5C113.255 58.6333 113.189 58.8 113.056 59C112.461 60.4 111.633 62.1333 110.574 64.2C109.582 66.2667 108.39 68.3333 107 70.4C105.611 72.4667 104.055 74.2 102.335 75.6C100.614 76.9333 98.7607 77.6 96.7752 77.6ZM79.6007 74.6C80.5272 74.6 81.6854 74.1 83.0753 73.1C84.4651 72.0333 85.9542 70.3667 87.5426 68.1C89.3958 65.4333 91.5136 62.1 93.8962 58.1C96.2788 54.1 98.6283 49.8667 100.945 45.4C100.084 44.6 99.0916 44.2 97.9665 44.2C96.1133 44.2 94.0286 45.0667 91.7122 46.8C89.4619 48.5333 87.2448 50.7333 85.0608 53.4C82.9429 56.0667 81.156 58.7667 79.6999 61.5C78.7072 63.3667 77.9792 65.0667 77.5159 66.6C77.1188 68.1333 76.9202 69.4667 76.9202 70.6C76.9202 73.2667 77.8137 74.6 79.6007 74.6ZM132.925 77.9C132.197 77.9667 131.369 77.8 130.443 77.4C129.516 77 128.689 76.2667 127.961 75.2C127.299 74.1333 126.968 72.6333 126.968 70.7C126.968 69.1 127.266 67.1667 127.862 64.9C127.067 66.1667 126.042 67.7333 124.784 69.6C123.527 71.4 122.17 73 120.714 74.4C119.456 75.6 118.265 76.4667 117.14 77C116.015 77.5333 114.989 77.8 114.062 77.8C112.342 77.8 110.952 77.0333 109.893 75.5C108.834 73.9 108.304 71.8333 108.304 69.3C108.304 66.6333 108.966 63.6 110.29 60.2C111.614 56.8 113.765 53.2667 116.743 49.6C118.662 47.2667 120.979 45.4 123.692 44C126.472 42.5333 129.185 41.8 131.833 41.8C133.355 41.8 134.811 42.0667 136.201 42.6C137.59 43.0667 138.815 43.8667 139.874 45C140.337 45.4667 140.569 46 140.569 46.6C140.569 47 140.403 47.3333 140.072 47.6C139.741 47.8667 139.311 47.9333 138.782 47.8C138.054 45.4667 136.498 44.3 134.116 44.3C132.991 44.3 131.7 44.6667 130.244 45.4C127.994 46.6 125.644 48.5667 123.196 51.3C120.813 54.0333 118.728 56.8667 116.941 59.8C116.677 60.2 116.246 60.9667 115.651 62.1C115.121 63.2333 114.592 64.5 114.062 65.9C113.533 67.3 113.169 68.6667 112.97 70C112.904 70.4 112.871 70.7 112.871 70.9C112.871 71.0333 112.871 71.2667 112.871 71.6C112.871 73.8 113.698 74.9 115.353 74.9C117.338 74.9 119.589 73.4333 122.104 70.5C123.824 68.3667 125.38 66.1333 126.77 63.8C128.159 61.4667 129.582 58.9667 131.038 56.3C132.031 54.5 132.958 53 133.818 51.8C134.678 50.6 135.903 50 137.491 50C138.219 50 138.947 50.1 139.675 50.3C140.403 50.5 141.164 50.5333 141.959 50.4C141.429 50.9333 140.701 51.9333 139.775 53.4C138.914 54.8667 137.988 56.5333 136.995 58.4C136.002 60.2667 135.109 62.1667 134.314 64.1C133.52 66.0333 132.958 67.7 132.627 69.1C132.561 69.5 132.461 70.0667 132.329 70.8C132.263 71.5333 132.23 72.0667 132.23 72.4C132.23 74.2667 132.759 75.2 133.818 75.2C134.877 75.2 136.002 74.5667 137.193 73.3C138.451 72.0333 139.675 70.4667 140.867 68.6C142.058 66.7333 143.15 64.8667 144.143 63C145.135 61.0667 145.93 59.5 146.525 58.3C146.79 57.6333 147.187 57.3 147.717 57.3C148.047 57.3 148.213 57.5333 148.213 58C148.213 58.2 148.114 58.5667 147.915 59.1C147.121 60.7667 146.161 62.6667 145.036 64.8C143.911 66.8667 142.687 68.9 141.363 70.9C140.039 72.8333 138.649 74.4667 137.193 75.8C135.804 77.0667 134.381 77.7667 132.925 77.9ZM158.196 77.7C156.939 77.7 155.681 77.2 154.424 76.2C153.166 75.1333 152.538 73.4333 152.538 71.1C152.538 69.3 152.968 67.2333 153.828 64.9C154.622 62.6333 155.681 60.4333 157.005 58.3C158.395 56.1667 159.387 54.4333 159.983 53.1C160.182 52.5667 160.281 52.1 160.281 51.7C160.281 50.5 159.52 49.6333 157.998 49.1C156.542 48.5667 154.622 48.2667 152.24 48.2L151.048 51.5C150.32 53.6333 149.295 56.1333 147.971 59C146.713 61.8667 145.29 64.6333 143.702 67.3C142.18 69.9667 140.591 72.1 138.937 73.7C138.805 73.8333 138.639 73.9 138.441 73.9C138.176 73.9 138.01 73.7333 137.944 73.4C137.812 73.0667 137.944 72.6667 138.341 72.2C140.922 68.7333 143.239 64.9 145.29 60.7C147.342 56.4333 149.063 52.1 150.453 47.7C151.909 43.3 152.968 39.2333 153.63 35.5C153.828 34.4333 154.192 33.6667 154.722 33.2C155.251 32.6667 155.814 32.4 156.409 32.4C157.27 32.4 158.064 32.8333 158.792 33.7C159.52 34.5 159.884 35.6667 159.884 37.2C159.884 37.4667 159.851 37.7667 159.785 38.1C159.785 38.4333 159.751 38.7667 159.685 39.1C159.421 40.5 158.626 41.8333 157.303 43.1C156.045 44.3 155.019 45.2 154.225 45.8C154.887 45.8667 155.582 45.9333 156.31 46C157.038 46 157.832 46 158.693 46C161.803 46 164.881 45.8 167.925 45.4C168.057 45.8 168.124 46.1 168.124 46.3C168.124 47.1667 167.859 48.2667 167.329 49.6C166.866 50.9333 166.37 52.1333 165.84 53.2C165.576 53.8 165.046 54.9 164.252 56.5C163.458 58.0333 162.597 59.8 161.671 61.8C160.744 63.7333 159.95 65.6667 159.288 67.6C158.693 69.4667 158.395 71.0667 158.395 72.4C158.395 74.1333 159.057 75 160.38 75C161.373 75 162.465 74.3667 163.656 73.1C164.848 71.7667 166.006 70.1667 167.131 68.3C168.322 66.3667 169.381 64.5 170.308 62.7C171.3 60.8333 172.062 59.3667 172.591 58.3C172.856 57.6333 173.22 57.3 173.683 57.3C173.948 57.3 174.08 57.5333 174.08 58C174.08 58.2667 173.981 58.6667 173.782 59.2C173.054 60.7333 172.194 62.4667 171.201 64.4C170.208 66.3333 169.083 68.2333 167.826 70.1C166.635 71.9667 165.311 73.6 163.855 75C162.465 76.3333 160.943 77.2 159.288 77.6C159.09 77.6667 158.726 77.7 158.196 77.7ZM193.712 77.9C192.984 77.9667 192.156 77.8 191.23 77.4C190.303 77 189.476 76.2667 188.748 75.2C188.086 74.1333 187.755 72.6333 187.755 70.7C187.755 69.1 188.053 67.1667 188.649 64.9C187.854 66.1667 186.829 67.7333 185.571 69.6C184.314 71.4 182.957 73 181.501 74.4C180.243 75.6 179.052 76.4667 177.927 77C176.802 77.5333 175.776 77.8 174.85 77.8C173.129 77.8 171.739 77.0333 170.68 75.5C169.621 73.9 169.092 71.8333 169.092 69.3C169.092 66.6333 169.753 63.6 171.077 60.2C172.401 56.8 174.552 53.2667 177.53 49.6C179.449 47.2667 181.766 45.4 184.479 44C187.259 42.5333 189.972 41.8 192.62 41.8C194.142 41.8 195.598 42.0667 196.988 42.6C198.378 43.0667 199.602 43.8667 200.661 45C201.124 45.4667 201.356 46 201.356 46.6C201.356 47 201.19 47.3333 200.859 47.6C200.529 47.8667 200.098 47.9333 199.569 47.8C198.841 45.4667 197.286 44.3 194.903 44.3C193.778 44.3 192.487 44.6667 191.031 45.4C188.781 46.6 186.432 48.5667 183.983 51.3C181.6 54.0333 179.515 56.8667 177.728 59.8C177.464 60.2 177.034 60.9667 176.438 62.1C175.908 63.2333 175.379 64.5 174.85 65.9C174.32 67.3 173.956 68.6667 173.757 70C173.691 70.4 173.658 70.7 173.658 70.9C173.658 71.0333 173.658 71.2667 173.658 71.6C173.658 73.8 174.486 74.9 176.14 74.9C178.126 74.9 180.376 73.4333 182.891 70.5C184.612 68.3667 186.167 66.1333 187.557 63.8C188.946 61.4667 190.369 58.9667 191.825 56.3C192.818 54.5 193.745 53 194.605 51.8C195.466 50.6 196.69 50 198.278 50C199.006 50 199.734 50.1 200.462 50.3C201.19 50.5 201.951 50.5333 202.746 50.4C202.216 50.9333 201.488 51.9333 200.562 53.4C199.701 54.8667 198.775 56.5333 197.782 58.4C196.789 60.2667 195.896 62.1667 195.102 64.1C194.307 66.0333 193.745 67.7 193.414 69.1C193.348 69.5 193.248 70.0667 193.116 70.8C193.05 71.5333 193.017 72.0667 193.017 72.4C193.017 74.2667 193.546 75.2 194.605 75.2C195.664 75.2 196.789 74.5667 197.98 73.3C199.238 72.0333 200.462 70.4667 201.654 68.6C202.845 66.7333 203.937 64.8667 204.93 63C205.922 61.0667 206.717 59.5 207.312 58.3C207.577 57.6333 207.974 57.3 208.504 57.3C208.835 57.3 209 57.5333 209 58C209 58.2 208.901 58.5667 208.702 59.1C207.908 60.7667 206.948 62.6667 205.823 64.8C204.698 66.8667 203.474 68.9 202.15 70.9C200.826 72.8333 199.437 74.4667 197.98 75.8C196.591 77.0667 195.168 77.7667 193.712 77.9Z" fill="#F8F3F3"/>
<path d="M28.336 116.936C27.984 116.936 27.64 116.912 27.304 116.864C26.296 116.736 25.552 116.44 25.072 115.976C24.608 115.512 24.376 115.008 24.376 114.464C24.376 113.872 24.64 113.336 25.168 112.856C25.712 112.376 26.472 112.136 27.448 112.136C27.752 112.136 28.072 112.168 28.408 112.232C28.76 112.28 29.128 112.368 29.512 112.496C29.704 112.56 29.8 112.648 29.8 112.76C29.8 112.824 29.752 112.856 29.656 112.856C29.56 112.856 29.48 112.84 29.416 112.808C29.16 112.712 28.912 112.648 28.672 112.616C28.448 112.568 28.232 112.544 28.024 112.544C27.336 112.544 26.808 112.744 26.44 113.144C26.088 113.528 25.912 113.952 25.912 114.416C25.912 114.864 26.096 115.272 26.464 115.64C26.832 116.008 27.416 116.192 28.216 116.192C29.224 116.192 30.152 115.96 31 115.496C31.864 115.032 32.68 114.424 33.448 113.672C34.264 112.872 35.008 111.912 35.68 110.792C36.352 109.656 37.016 108.448 37.672 107.168C38.344 105.872 39.072 104.568 39.856 103.256C40.64 101.944 41.544 100.712 42.568 99.56C42.776 99.336 42.984 99.104 43.192 98.864C43.416 98.608 43.632 98.392 43.84 98.216C43.296 98.136 42.736 98.08 42.16 98.048C41.584 98 41.016 97.976 40.456 97.976C39.624 97.976 38.832 98.016 38.08 98.096C37.344 98.16 36.608 98.256 35.872 98.384C35.12 98.528 34.28 98.752 33.352 99.056C32.424 99.36 31.52 99.76 30.64 100.256C29.776 100.736 29.032 101.32 28.408 102.008C27.8 102.696 27.424 103.488 27.28 104.384C27.264 104.464 27.248 104.552 27.232 104.648C27.232 104.728 27.232 104.808 27.232 104.888C27.232 105.624 27.48 106.232 27.976 106.712C28.488 107.192 29.08 107.432 29.752 107.432C30.248 107.432 30.728 107.304 31.192 107.048C31.656 106.776 32.072 106.424 32.44 105.992C32.808 105.544 33.08 105.056 33.256 104.528C33.272 104.368 33.336 104.288 33.448 104.288C33.544 104.288 33.592 104.376 33.592 104.552C33.576 105.256 33.368 105.864 32.968 106.376C32.584 106.888 32.096 107.28 31.504 107.552C30.912 107.808 30.312 107.936 29.704 107.936C29.08 107.936 28.488 107.808 27.928 107.552C27.368 107.28 26.912 106.888 26.56 106.376C26.208 105.848 26.032 105.2 26.032 104.432C26.032 103.536 26.248 102.744 26.68 102.056C27.128 101.368 27.72 100.768 28.456 100.256C29.192 99.728 29.992 99.288 30.856 98.936C31.72 98.568 32.584 98.28 33.448 98.072C34.312 97.848 35.096 97.68 35.8 97.568C36.52 97.456 37.264 97.368 38.032 97.304C38.816 97.24 39.608 97.208 40.408 97.208C41.096 97.208 41.784 97.24 42.472 97.304C43.16 97.368 43.832 97.464 44.488 97.592C44.76 97.384 45.04 97.2 45.328 97.04C45.616 96.88 45.936 96.736 46.288 96.608C46.512 96.512 46.68 96.464 46.792 96.464C46.888 96.464 46.936 96.496 46.936 96.56C46.936 96.672 46.808 96.808 46.552 96.968C46.424 97.032 46.264 97.144 46.072 97.304C45.88 97.464 45.672 97.648 45.448 97.856C46.488 98.112 47.424 98.496 48.256 99.008C49.168 99.552 49.816 100.128 50.2 100.736C50.6 101.344 50.8 101.968 50.8 102.608C50.8 103.344 50.576 104.08 50.128 104.816C49.68 105.536 49.096 106.208 48.376 106.832C47.656 107.456 46.864 108 46 108.464C45.136 108.912 44.28 109.24 43.432 109.448C42.616 109.656 41.792 109.808 40.96 109.904C40.128 110 39.384 110.048 38.728 110.048C38.616 110.048 38.496 110.048 38.368 110.048C38.256 110.048 38.144 110.04 38.032 110.024C37.488 110.792 36.928 111.544 36.352 112.28C35.776 113 35.128 113.704 34.408 114.392C33.528 115.224 32.568 115.856 31.528 116.288C30.488 116.72 29.424 116.936 28.336 116.936ZM38.368 109.496C38.976 109.512 39.656 109.464 40.408 109.352C41.16 109.24 41.912 109.072 42.664 108.848C43.912 108.464 45.032 107.912 46.024 107.192C47.032 106.472 47.824 105.672 48.4 104.792C48.992 103.912 49.288 103.048 49.288 102.2C49.288 101.688 49.16 101.2 48.904 100.736C48.664 100.272 48.264 99.856 47.704 99.488C47.336 99.248 46.92 99.04 46.456 98.864C45.992 98.688 45.504 98.544 44.992 98.432C44.176 99.584 43.408 100.784 42.688 102.032C41.984 103.28 41.28 104.536 40.576 105.8C39.888 107.064 39.152 108.296 38.368 109.496ZM46.612 116C46.436 116 46.22 115.96 45.964 115.88C45.724 115.8 45.508 115.656 45.316 115.448C45.14 115.224 45.052 114.896 45.052 114.464C45.052 114.048 45.148 113.648 45.34 113.264C45.548 112.864 45.74 112.48 45.916 112.112C45.868 112.112 45.812 112.096 45.748 112.064C45.7 112.032 45.676 111.984 45.676 111.92C45.676 111.856 45.692 111.792 45.724 111.728C45.788 111.6 45.86 111.464 45.94 111.32C46.02 111.176 46.092 111.024 46.156 110.864C46.396 110.368 46.636 109.896 46.876 109.448C47.116 108.984 47.324 108.576 47.5 108.224C47.676 107.872 47.98 107.696 48.412 107.696H49.9C49.628 107.904 49.38 108.136 49.156 108.392C48.948 108.632 48.684 109.08 48.364 109.736C48.364 109.736 48.308 109.848 48.196 110.072C48.084 110.296 47.94 110.584 47.764 110.936C47.604 111.272 47.436 111.616 47.26 111.968C47.1 112.32 46.964 112.616 46.852 112.856C46.644 113.304 46.508 113.664 46.444 113.936C46.38 114.192 46.348 114.432 46.348 114.656C46.348 115.184 46.524 115.448 46.876 115.448C47.26 115.448 47.724 115.136 48.268 114.512C48.716 113.984 49.156 113.352 49.588 112.616C50.02 111.88 50.428 111.12 50.812 110.336C51.212 109.552 51.564 108.848 51.868 108.224C52.044 107.872 52.356 107.696 52.804 107.696H54.124C53.884 107.888 53.684 108.072 53.524 108.248C53.364 108.408 53.204 108.632 53.044 108.92C52.9 109.192 52.7 109.584 52.444 110.096C52.236 110.528 52.012 110.992 51.772 111.488C51.548 111.968 51.348 112.424 51.172 112.856C50.996 113.288 50.884 113.64 50.836 113.912C50.82 114.072 50.804 114.192 50.788 114.272C50.772 114.352 50.764 114.44 50.764 114.536C50.764 114.84 50.812 115.056 50.908 115.184C51.02 115.312 51.148 115.376 51.292 115.376C51.676 115.376 52.06 115.16 52.444 114.728C52.844 114.296 53.22 113.768 53.572 113.144C53.94 112.52 54.252 111.928 54.508 111.368C54.604 111.192 54.692 111.104 54.772 111.104C54.868 111.104 54.916 111.16 54.916 111.272C54.916 111.352 54.884 111.448 54.82 111.56C54.644 111.944 54.428 112.384 54.172 112.88C53.916 113.376 53.628 113.864 53.308 114.344C52.988 114.824 52.636 115.224 52.252 115.544C51.868 115.848 51.452 116 51.004 116C50.604 116 50.276 115.856 50.02 115.568C49.764 115.264 49.636 114.84 49.636 114.296C49.636 113.864 49.716 113.4 49.876 112.904C49.604 113.384 49.292 113.864 48.94 114.344C48.588 114.824 48.212 115.224 47.812 115.544C47.412 115.848 47.012 116 46.612 116ZM55.669 116.072C54.997 116.072 54.541 115.896 54.301 115.544C54.061 115.176 53.941 114.744 53.941 114.248C53.941 113.736 54.013 113.208 54.157 112.664C54.301 112.12 54.429 111.664 54.541 111.296C54.797 110.4 55.117 109.448 55.501 108.44C55.901 107.416 56.333 106.416 56.797 105.44C57.277 104.448 57.749 103.56 58.213 102.776C58.581 102.152 58.973 101.688 59.389 101.384C59.821 101.064 60.197 100.904 60.517 100.904C60.773 100.904 60.973 101 61.117 101.192C61.277 101.368 61.357 101.64 61.357 102.008C61.357 102.264 61.309 102.568 61.213 102.92C61.133 103.272 60.989 103.672 60.781 104.12C60.221 105.368 59.549 106.616 58.765 107.864C57.997 109.112 57.021 110.28 55.837 111.368C55.773 111.576 55.685 111.824 55.573 112.112C55.477 112.384 55.389 112.664 55.309 112.952C55.213 113.384 55.165 113.752 55.165 114.056C55.165 114.552 55.261 114.928 55.453 115.184C55.661 115.424 55.909 115.544 56.197 115.544C56.453 115.544 56.725 115.456 57.013 115.28C57.301 115.088 57.573 114.816 57.829 114.464C58.213 113.904 58.557 113.336 58.861 112.76C59.181 112.168 59.421 111.712 59.581 111.392C59.677 111.216 59.781 111.128 59.893 111.128C59.973 111.128 60.013 111.176 60.013 111.272C60.013 111.352 59.989 111.44 59.941 111.536C59.797 111.856 59.605 112.272 59.365 112.784C59.141 113.28 58.853 113.784 58.501 114.296C58.165 114.792 57.757 115.216 57.277 115.568C56.813 115.904 56.277 116.072 55.669 116.072ZM56.029 110.6C56.605 110.008 57.165 109.328 57.709 108.56C58.253 107.776 58.757 106.968 59.221 106.136C59.701 105.288 60.101 104.488 60.421 103.736C60.533 103.496 60.621 103.232 60.685 102.944C60.765 102.656 60.805 102.416 60.805 102.224C60.805 102 60.749 101.888 60.637 101.888C60.573 101.888 60.477 101.952 60.349 102.08C60.221 102.192 60.053 102.392 59.845 102.68C59.541 103.08 59.205 103.624 58.837 104.312C58.485 105 58.125 105.736 57.757 106.52C57.389 107.304 57.053 108.064 56.749 108.8C56.445 109.52 56.205 110.12 56.029 110.6ZM60.1304 116.096C59.3464 116.096 58.7864 115.896 58.4504 115.496C58.1304 115.08 57.9704 114.648 57.9704 114.2C57.9704 113.832 58.0584 113.496 58.2344 113.192C58.4264 112.888 58.6504 112.728 58.9064 112.712C59.2264 112.088 59.5704 111.408 59.9384 110.672C60.3224 109.936 60.6744 109.224 60.9944 108.536C61.2184 108.072 61.4984 107.624 61.8344 107.192C62.1864 106.76 62.5704 106.512 62.9864 106.448H63.2264C63.3544 106.448 63.4664 106.456 63.5624 106.472C63.6744 106.488 63.7864 106.52 63.8984 106.568C64.0744 106.648 64.1624 106.768 64.1624 106.928C64.1624 107.024 64.1064 107.072 63.9944 107.072C63.9464 107.072 63.8824 107.048 63.8024 107C63.6104 106.92 63.4424 106.88 63.2984 106.88C63.2024 106.88 63.1144 106.904 63.0344 106.952C62.7304 107.112 62.5144 107.336 62.3864 107.624C62.2744 107.912 62.2184 108.216 62.2184 108.536C62.2184 108.792 62.2424 109.056 62.2904 109.328C62.3544 109.584 62.4264 109.816 62.5064 110.024C62.6824 110.472 62.8664 110.912 63.0584 111.344C63.2664 111.776 63.3704 112.24 63.3704 112.736C63.3704 113.216 63.2104 113.728 62.8904 114.272C62.5704 114.8 62.1624 115.224 61.6664 115.544L61.8344 115.568C61.9144 115.584 61.9704 115.592 62.0024 115.592C62.0344 115.592 62.0584 115.592 62.0744 115.592C62.4424 115.592 62.7864 115.488 63.1064 115.28C63.4424 115.056 63.7384 114.784 63.9944 114.464C64.2504 114.144 64.5384 113.696 64.8584 113.12C65.1944 112.544 65.5144 111.936 65.8184 111.296C65.8664 111.216 65.9224 111.176 65.9864 111.176C66.0664 111.176 66.1224 111.208 66.1544 111.272C66.2024 111.32 66.2104 111.384 66.1784 111.464C65.9704 111.912 65.7304 112.4 65.4584 112.928C65.2024 113.44 64.9064 113.936 64.5704 114.416C64.2344 114.88 63.8424 115.264 63.3944 115.568C62.9624 115.856 62.4744 116 61.9304 116C61.8024 116 61.6664 115.992 61.5224 115.976C61.3784 115.96 61.2344 115.928 61.0904 115.88C60.9304 115.944 60.7624 115.992 60.5864 116.024C60.4264 116.072 60.2744 116.096 60.1304 116.096ZM60.8504 115.376C61.1224 115.152 61.3624 114.824 61.5704 114.392C61.7944 113.96 61.9064 113.392 61.9064 112.688C61.9064 112.064 61.8424 111.4 61.7144 110.696C61.5864 109.992 61.5224 109.368 61.5224 108.824C61.5224 108.712 61.5224 108.616 61.5224 108.536C61.5384 108.44 61.5544 108.352 61.5704 108.272C61.3624 108.704 61.1224 109.208 60.8504 109.784C60.5784 110.344 60.3064 110.888 60.0344 111.416C59.7624 111.944 59.5304 112.392 59.3384 112.76C59.3384 112.76 59.3784 112.768 59.4584 112.784C59.5544 112.784 59.6424 112.84 59.7224 112.952C59.8024 113.048 59.8344 113.248 59.8184 113.552C59.8024 113.952 59.8904 114.328 60.0824 114.68C60.2904 115.016 60.5464 115.248 60.8504 115.376ZM59.9384 115.712C60.0344 115.712 60.1224 115.704 60.2024 115.688C60.2824 115.656 60.3544 115.632 60.4184 115.616C60.1784 115.44 59.9624 115.208 59.7704 114.92C59.5944 114.616 59.4904 114.232 59.4584 113.768C59.1704 114.072 59.0264 114.4 59.0264 114.752C59.0264 115.008 59.1064 115.232 59.2664 115.424C59.4264 115.616 59.6504 115.712 59.9384 115.712ZM67.4464 116.096C66.8544 116.096 66.3184 115.904 65.8384 115.52C65.3744 115.136 65.1424 114.552 65.1424 113.768C65.1424 113.048 65.3184 112.28 65.6704 111.464C66.0224 110.632 66.4704 109.904 67.0144 109.28C67.4784 108.736 67.9984 108.288 68.5744 107.936C69.1504 107.584 69.6944 107.408 70.2064 107.408C70.5584 107.408 70.8624 107.504 71.1184 107.696C71.3904 107.904 71.5264 108.2 71.5264 108.584C71.5264 108.984 71.3744 109.424 71.0704 109.904C70.7664 110.384 70.3344 110.832 69.7744 111.248C69.5344 111.424 69.2304 111.592 68.8624 111.752C68.4944 111.912 68.1264 112.048 67.7584 112.16C67.3904 112.256 67.0864 112.304 66.8464 112.304C66.7664 112.496 66.6864 112.752 66.6064 113.072C66.5424 113.392 66.5104 113.72 66.5104 114.056C66.5104 114.456 66.5904 114.816 66.7504 115.136C66.9104 115.456 67.2064 115.616 67.6384 115.616C68.1664 115.616 68.6464 115.464 69.0784 115.16C69.5104 114.856 69.8944 114.48 70.2304 114.032C70.5664 113.568 70.8464 113.104 71.0704 112.64C71.3104 112.176 71.5024 111.784 71.6464 111.464C71.7424 111.24 71.8704 111.128 72.0304 111.128C72.1104 111.128 72.1504 111.168 72.1504 111.248C72.1504 111.312 72.1264 111.392 72.0784 111.488C71.8544 111.968 71.6144 112.48 71.3584 113.024C71.1024 113.552 70.7984 114.056 70.4464 114.536C70.0944 115 69.6704 115.376 69.1744 115.664C68.6944 115.952 68.1184 116.096 67.4464 116.096ZM67.0144 111.872C67.2384 111.872 67.6144 111.792 68.1424 111.632C68.6704 111.456 69.1504 111.184 69.5824 110.816C69.9984 110.448 70.3184 110.048 70.5424 109.616C70.7664 109.168 70.8784 108.792 70.8784 108.488C70.8784 108.136 70.7504 107.96 70.4944 107.96C70.3024 107.96 70.0384 108.088 69.7024 108.344C69.3664 108.6 68.9504 109.032 68.4544 109.64C68.1504 110.024 67.8624 110.44 67.5904 110.888C67.3184 111.336 67.1264 111.664 67.0144 111.872ZM74.5516 116.024C74.2476 116.024 73.9436 115.904 73.6396 115.664C73.3356 115.408 73.1836 115 73.1836 114.44C73.1836 114.008 73.2876 113.512 73.4956 112.952C73.6876 112.408 73.9436 111.88 74.2636 111.368C74.5996 110.856 74.8396 110.44 74.9836 110.12C75.0316 109.992 75.0556 109.88 75.0556 109.784C75.0556 109.496 74.8716 109.288 74.5036 109.16C74.1516 109.032 73.6876 108.96 73.1116 108.944L72.8236 109.736C72.6476 110.248 72.3996 110.848 72.0796 111.536C71.7756 112.224 71.4316 112.888 71.0476 113.528C70.6796 114.168 70.2956 114.68 69.8956 115.064C69.8636 115.096 69.8236 115.112 69.7756 115.112C69.7116 115.112 69.6716 115.072 69.6556 114.992C69.6236 114.912 69.6556 114.816 69.7516 114.704C70.3756 113.872 70.9356 112.952 71.4316 111.944C71.9276 110.92 72.3436 109.88 72.6796 108.824C73.0316 107.768 73.2876 106.792 73.4476 105.896C73.4956 105.64 73.5836 105.456 73.7116 105.344C73.8396 105.216 73.9756 105.152 74.1196 105.152C74.3276 105.152 74.5196 105.256 74.6956 105.464C74.8716 105.656 74.9596 105.936 74.9596 106.304C74.9596 106.368 74.9516 106.44 74.9356 106.52C74.9356 106.6 74.9276 106.68 74.9116 106.76C74.8476 107.096 74.6556 107.416 74.3356 107.72C74.0316 108.008 73.7836 108.224 73.5916 108.368C73.7516 108.384 73.9196 108.4 74.0956 108.416C74.2716 108.416 74.4636 108.416 74.6716 108.416C75.4236 108.416 76.1676 108.368 76.9036 108.272C76.9356 108.368 76.9516 108.44 76.9516 108.488C76.9516 108.696 76.8876 108.96 76.7596 109.28C76.6476 109.6 76.5276 109.888 76.3996 110.144C76.3356 110.288 76.2076 110.552 76.0156 110.936C75.8236 111.304 75.6156 111.728 75.3916 112.208C75.1676 112.672 74.9756 113.136 74.8156 113.6C74.6716 114.048 74.5996 114.432 74.5996 114.752C74.5996 115.168 74.7596 115.376 75.0796 115.376C75.3196 115.376 75.5836 115.224 75.8716 114.92C76.1596 114.6 76.4396 114.216 76.7116 113.768C76.9996 113.304 77.2556 112.856 77.4796 112.424C77.7196 111.976 77.9036 111.624 78.0316 111.368C78.0956 111.208 78.1836 111.128 78.2956 111.128C78.3596 111.128 78.3916 111.184 78.3916 111.296C78.3916 111.36 78.3676 111.456 78.3196 111.584C78.1436 111.952 77.9356 112.368 77.6956 112.832C77.4556 113.296 77.1836 113.752 76.8796 114.2C76.5916 114.648 76.2716 115.04 75.9196 115.376C75.5836 115.696 75.2156 115.904 74.8156 116C74.7676 116.016 74.6796 116.024 74.5516 116.024ZM83.1374 116.072C82.9614 116.088 82.7614 116.048 82.5374 115.952C82.3134 115.856 82.1134 115.68 81.9374 115.424C81.7774 115.168 81.6974 114.808 81.6974 114.344C81.6974 113.96 81.7694 113.496 81.9134 112.952C81.7214 113.256 81.4734 113.632 81.1694 114.08C80.8654 114.512 80.5374 114.896 80.1854 115.232C79.8814 115.52 79.5934 115.728 79.3214 115.856C79.0494 115.984 78.8014 116.048 78.5774 116.048C78.1614 116.048 77.8254 115.864 77.5694 115.496C77.3134 115.112 77.1854 114.616 77.1854 114.008C77.1854 113.368 77.3454 112.64 77.6654 111.824C77.9854 111.008 78.5054 110.16 79.2254 109.28C79.6894 108.72 80.2494 108.272 80.9054 107.936C81.5774 107.584 82.2334 107.408 82.8734 107.408C83.2414 107.408 83.5934 107.472 83.9294 107.6C84.2654 107.712 84.5614 107.904 84.8174 108.176C84.9294 108.288 84.9854 108.416 84.9854 108.56C84.9854 108.656 84.9454 108.736 84.8654 108.8C84.7854 108.864 84.6814 108.88 84.5534 108.848C84.3774 108.288 84.0014 108.008 83.4254 108.008C83.1534 108.008 82.8414 108.096 82.4894 108.272C81.9454 108.56 81.3774 109.032 80.7854 109.688C80.2094 110.344 79.7054 111.024 79.2734 111.728C79.2094 111.824 79.1054 112.008 78.9614 112.28C78.8334 112.552 78.7054 112.856 78.5774 113.192C78.4494 113.528 78.3614 113.856 78.3134 114.176C78.2974 114.272 78.2894 114.344 78.2894 114.392C78.2894 114.424 78.2894 114.48 78.2894 114.56C78.2894 115.088 78.4894 115.352 78.8894 115.352C79.3694 115.352 79.9134 115 80.5214 114.296C80.9374 113.784 81.3134 113.248 81.6494 112.688C81.9854 112.128 82.3294 111.528 82.6814 110.888C82.9214 110.456 83.1454 110.096 83.3534 109.808C83.5614 109.52 83.8574 109.376 84.2414 109.376C84.4174 109.376 84.5934 109.4 84.7694 109.448C84.9454 109.496 85.1294 109.504 85.3214 109.472C85.1934 109.6 85.0174 109.84 84.7934 110.192C84.5854 110.544 84.3614 110.944 84.1214 111.392C83.8814 111.84 83.6654 112.296 83.4734 112.76C83.2814 113.224 83.1454 113.624 83.0654 113.96C83.0494 114.056 83.0254 114.192 82.9934 114.368C82.9774 114.544 82.9694 114.672 82.9694 114.752C82.9694 115.2 83.0974 115.424 83.3534 115.424C83.6094 115.424 83.8814 115.272 84.1694 114.968C84.4734 114.664 84.7694 114.288 85.0574 113.84C85.3454 113.392 85.6094 112.944 85.8494 112.496C86.0894 112.032 86.2814 111.656 86.4254 111.368C86.4894 111.208 86.5854 111.128 86.7134 111.128C86.7934 111.128 86.8334 111.184 86.8334 111.296C86.8334 111.344 86.8094 111.432 86.7614 111.56C86.5694 111.96 86.3374 112.416 86.0654 112.928C85.7934 113.424 85.4974 113.912 85.1774 114.392C84.8574 114.856 84.5214 115.248 84.1694 115.568C83.8334 115.872 83.4894 116.04 83.1374 116.072ZM86.9429 116.096C86.1589 116.096 85.5989 115.896 85.2629 115.496C84.9429 115.08 84.7829 114.648 84.7829 114.2C84.7829 113.832 84.8709 113.496 85.0469 113.192C85.2389 112.888 85.4629 112.728 85.7189 112.712C86.0389 112.088 86.3829 111.408 86.7509 110.672C87.1349 109.936 87.4869 109.224 87.8069 108.536C88.0309 108.072 88.3109 107.624 88.6469 107.192C88.9989 106.76 89.3829 106.512 89.7989 106.448H90.0389C90.1669 106.448 90.2789 106.456 90.3749 106.472C90.4869 106.488 90.5989 106.52 90.7109 106.568C90.8869 106.648 90.9749 106.768 90.9749 106.928C90.9749 107.024 90.9189 107.072 90.8069 107.072C90.7589 107.072 90.6949 107.048 90.6149 107C90.4229 106.92 90.2549 106.88 90.1109 106.88C90.0149 106.88 89.9269 106.904 89.8469 106.952C89.5429 107.112 89.3269 107.336 89.1989 107.624C89.0869 107.912 89.0309 108.216 89.0309 108.536C89.0309 108.792 89.0549 109.056 89.1029 109.328C89.1669 109.584 89.2389 109.816 89.3189 110.024C89.4949 110.472 89.6789 110.912 89.8709 111.344C90.0789 111.776 90.1829 112.24 90.1829 112.736C90.1829 113.216 90.0229 113.728 89.7029 114.272C89.3829 114.8 88.9749 115.224 88.4789 115.544L88.6469 115.568C88.7269 115.584 88.7829 115.592 88.8149 115.592C88.8469 115.592 88.8709 115.592 88.8869 115.592C89.2549 115.592 89.5989 115.488 89.9189 115.28C90.2549 115.056 90.5509 114.784 90.8069 114.464C91.0629 114.144 91.3509 113.696 91.6709 113.12C92.0069 112.544 92.3269 111.936 92.6309 111.296C92.6789 111.216 92.7349 111.176 92.7989 111.176C92.8789 111.176 92.9349 111.208 92.9669 111.272C93.0149 111.32 93.0229 111.384 92.9909 111.464C92.7829 111.912 92.5429 112.4 92.2709 112.928C92.0149 113.44 91.7189 113.936 91.3829 114.416C91.0469 114.88 90.6549 115.264 90.2069 115.568C89.7749 115.856 89.2869 116 88.7429 116C88.6149 116 88.4789 115.992 88.3349 115.976C88.1909 115.96 88.0469 115.928 87.9029 115.88C87.7429 115.944 87.5749 115.992 87.3989 116.024C87.2389 116.072 87.0869 116.096 86.9429 116.096ZM87.6629 115.376C87.9349 115.152 88.1749 114.824 88.3829 114.392C88.6069 113.96 88.7189 113.392 88.7189 112.688C88.7189 112.064 88.6549 111.4 88.5269 110.696C88.3989 109.992 88.3349 109.368 88.3349 108.824C88.3349 108.712 88.3349 108.616 88.3349 108.536C88.3509 108.44 88.3669 108.352 88.3829 108.272C88.1749 108.704 87.9349 109.208 87.6629 109.784C87.3909 110.344 87.1189 110.888 86.8469 111.416C86.5749 111.944 86.3429 112.392 86.1509 112.76C86.1509 112.76 86.1909 112.768 86.2709 112.784C86.3669 112.784 86.4549 112.84 86.5349 112.952C86.6149 113.048 86.6469 113.248 86.6309 113.552C86.6149 113.952 86.7029 114.328 86.8949 114.68C87.1029 115.016 87.3589 115.248 87.6629 115.376ZM86.7509 115.712C86.8469 115.712 86.9349 115.704 87.0149 115.688C87.0949 115.656 87.1669 115.632 87.2309 115.616C86.9909 115.44 86.7749 115.208 86.5829 114.92C86.4069 114.616 86.3029 114.232 86.2709 113.768C85.9829 114.072 85.8389 114.4 85.8389 114.752C85.8389 115.008 85.9189 115.232 86.0789 115.424C86.2389 115.616 86.4629 115.712 86.7509 115.712ZM95.5493 123.656C94.7173 123.656 94.1253 123.488 93.7733 123.152C93.4213 122.832 93.2453 122.448 93.2453 122C93.2453 121.76 93.2773 121.552 93.3413 121.376C93.4053 121.2 93.5013 120.976 93.6293 120.704C93.8533 120.24 94.1653 119.84 94.5653 119.504C94.9653 119.168 95.3973 118.896 95.8613 118.688C96.6933 118.304 97.6373 117.992 98.6933 117.752C99.7653 117.512 100.789 117.248 101.765 116.96C102.069 116.432 102.349 115.832 102.605 115.16C102.861 114.472 103.093 113.808 103.301 113.168C103.509 112.512 103.677 111.976 103.805 111.56C103.613 111.912 103.365 112.344 103.061 112.856C102.773 113.352 102.445 113.84 102.077 114.32C101.709 114.8 101.309 115.2 100.877 115.52C100.461 115.84 100.021 116 99.5573 116C99.3813 116 99.1653 115.96 98.9093 115.88C98.6693 115.8 98.4533 115.656 98.2613 115.448C98.0853 115.224 97.9973 114.896 97.9973 114.464C97.9973 114.048 98.0933 113.648 98.2853 113.264C98.4933 112.864 98.6853 112.48 98.8613 112.112C98.8133 112.112 98.7573 112.096 98.6933 112.064C98.6453 112.032 98.6213 111.984 98.6213 111.92C98.6213 111.856 98.6373 111.792 98.6693 111.728C98.7333 111.6 98.8053 111.464 98.8853 111.32C98.9653 111.176 99.0373 111.024 99.1013 110.864C99.3413 110.368 99.5813 109.896 99.8213 109.448C100.061 108.984 100.269 108.576 100.445 108.224C100.621 107.872 100.925 107.696 101.357 107.696H102.845C102.733 107.792 102.589 107.904 102.413 108.032C102.253 108.144 102.101 108.32 101.957 108.56C101.525 109.296 101.149 110.008 100.829 110.696C100.509 111.368 100.165 112.088 99.7973 112.856C99.6213 113.224 99.4933 113.56 99.4133 113.864C99.3333 114.168 99.2933 114.432 99.2933 114.656C99.2933 115.184 99.4693 115.448 99.8213 115.448C100.205 115.448 100.669 115.136 101.213 114.512C101.661 113.984 102.109 113.36 102.557 112.64C103.021 111.904 103.461 111.152 103.877 110.384C104.309 109.6 104.685 108.88 105.005 108.224C105.181 107.872 105.493 107.696 105.941 107.696H107.261C106.797 108.016 106.437 108.432 106.181 108.944C105.941 109.456 105.669 110.112 105.365 110.912C105.029 111.792 104.709 112.704 104.405 113.648C104.117 114.576 103.789 115.512 103.421 116.456C103.949 116.28 104.541 116.008 105.197 115.64C105.869 115.272 106.437 114.744 106.901 114.056C107.269 113.512 107.581 112.992 107.837 112.496C108.109 111.984 108.301 111.616 108.413 111.392C108.477 111.232 108.565 111.152 108.677 111.152C108.789 111.152 108.845 111.224 108.845 111.368C108.845 111.448 108.821 111.536 108.773 111.632C108.357 112.464 107.981 113.168 107.645 113.744C107.325 114.304 106.965 114.792 106.565 115.208C106.181 115.608 105.709 115.96 105.149 116.264C104.589 116.584 103.877 116.904 103.013 117.224C102.629 117.912 102.189 118.624 101.693 119.36C101.213 120.112 100.661 120.808 100.037 121.448C99.4293 122.104 98.7493 122.632 97.9973 123.032C97.2613 123.448 96.4453 123.656 95.5493 123.656ZM94.9733 123.176C95.5013 123.176 96.0453 123.016 96.6053 122.696C97.1653 122.376 97.7093 121.968 98.2373 121.472C98.7653 120.992 99.2453 120.496 99.6773 119.984C100.125 119.488 100.485 119.048 100.757 118.664C100.837 118.552 100.925 118.408 101.021 118.232C101.117 118.056 101.213 117.888 101.309 117.728C100.525 117.936 99.6613 118.16 98.7173 118.4C97.7893 118.656 96.9813 118.936 96.2933 119.24C95.5253 119.56 94.9253 120.016 94.4933 120.608C94.0453 121.2 93.8213 121.728 93.8213 122.192C93.8213 122.48 93.9173 122.712 94.1093 122.888C94.2853 123.08 94.5733 123.176 94.9733 123.176ZM122.529 118.472C121.937 118.472 121.329 118.408 120.705 118.28C120.097 118.152 119.489 117.96 118.881 117.704C117.889 117.272 117.089 116.704 116.48 116C115.873 115.312 115.433 114.528 115.161 113.648C114.889 112.768 114.753 111.848 114.753 110.888C114.753 109.88 114.873 108.872 115.113 107.864C115.369 106.856 115.721 105.896 116.169 104.984C116.617 104.056 117.121 103.232 117.681 102.512C117.569 102.096 117.473 101.616 117.393 101.072C117.329 100.528 117.297 99.976 117.297 99.416C117.297 98.568 117.393 97.76 117.585 96.992C117.649 96.768 117.761 96.656 117.921 96.656C118.033 96.656 118.089 96.736 118.089 96.896C118.089 96.992 118.081 97.064 118.065 97.112C118.033 97.352 118.001 97.6 117.969 97.856C117.953 98.112 117.945 98.376 117.945 98.648C117.945 99.192 117.977 99.728 118.041 100.256C118.105 100.784 118.177 101.272 118.257 101.72C119.425 100.2 120.761 99.072 122.265 98.336C123.785 97.584 125.377 97.208 127.041 97.208C127.473 97.208 127.889 97.232 128.289 97.28C129.569 97.424 130.617 97.744 131.433 98.24C132.249 98.72 132.849 99.312 133.233 100.016C133.633 100.72 133.833 101.464 133.833 102.248C133.833 103.016 133.657 103.776 133.305 104.528C132.953 105.28 132.441 105.968 131.769 106.592C131.097 107.2 130.273 107.696 129.297 108.08C128.337 108.448 127.249 108.632 126.033 108.632C125.761 108.632 125.489 108.624 125.217 108.608C124.945 108.592 124.649 108.56 124.329 108.512C123.065 108.32 121.913 107.912 120.873 107.288C119.833 106.664 118.993 105.704 118.353 104.408C118.225 104.568 118.049 104.896 117.825 105.392C117.601 105.872 117.377 106.456 117.153 107.144C116.929 107.832 116.737 108.584 116.577 109.4C116.417 110.2 116.337 111.008 116.337 111.824C116.337 112.608 116.441 113.368 116.649 114.104C116.857 114.824 117.217 115.456 117.729 116C118.241 116.56 118.937 116.976 119.817 117.248C120.249 117.376 120.697 117.472 121.161 117.536C121.625 117.6 122.097 117.632 122.577 117.632C123.505 117.632 124.425 117.512 125.337 117.272C126.249 117.032 127.097 116.68 127.881 116.216C128.921 115.608 129.721 114.904 130.281 114.104C130.841 113.288 131.361 112.376 131.841 111.368C131.905 111.208 131.993 111.128 132.105 111.128C132.185 111.128 132.225 111.184 132.225 111.296C132.225 111.376 132.193 111.472 132.129 111.584C131.793 112.288 131.457 112.936 131.121 113.528C130.785 114.104 130.393 114.64 129.945 115.136C129.497 115.632 128.929 116.12 128.241 116.6C127.457 117.144 126.577 117.592 125.601 117.944C124.625 118.296 123.601 118.472 122.529 118.472ZM125.889 108.008C126.993 108.008 127.969 107.848 128.817 107.528C129.665 107.192 130.377 106.76 130.953 106.232C131.545 105.688 131.985 105.088 132.273 104.432C132.577 103.776 132.729 103.112 132.729 102.44C132.729 101.784 132.577 101.16 132.273 100.568C131.969 99.976 131.505 99.472 130.881 99.056C130.273 98.624 129.489 98.344 128.529 98.216C128.177 98.168 127.825 98.144 127.473 98.144C126.385 98.144 125.313 98.376 124.257 98.84C123.217 99.288 122.233 99.928 121.305 100.76C120.377 101.576 119.553 102.536 118.833 103.64C119.393 105.032 120.177 106.056 121.185 106.712C122.209 107.368 123.377 107.776 124.689 107.936C125.105 107.984 125.505 108.008 125.889 108.008ZM132.941 116C132.333 116 131.885 115.8 131.597 115.4C131.309 114.984 131.165 114.48 131.165 113.888C131.165 113.168 131.333 112.416 131.669 111.632C131.989 110.896 132.397 110.224 132.893 109.616C133.389 109.008 133.925 108.52 134.501 108.152C135.077 107.768 135.637 107.576 136.181 107.576C136.789 107.576 137.237 107.776 137.525 108.176C137.813 108.576 137.957 109.08 137.957 109.688C137.957 110.424 137.789 111.176 137.453 111.944C137.261 112.376 136.989 112.856 136.637 113.384C136.285 113.896 135.885 114.368 135.437 114.8C135.533 114.976 135.669 115.128 135.845 115.256C136.021 115.368 136.261 115.424 136.565 115.424C136.949 115.424 137.309 115.264 137.645 114.944C137.997 114.624 138.317 114.24 138.605 113.792C138.893 113.328 139.149 112.864 139.373 112.4C139.597 111.936 139.781 111.56 139.925 111.272C139.973 111.176 140.053 111.128 140.165 111.128C140.229 111.128 140.277 111.16 140.309 111.224C140.341 111.272 140.333 111.352 140.285 111.464C140.189 111.704 140.029 112.064 139.805 112.544C139.581 113.008 139.309 113.496 138.989 114.008C138.669 114.504 138.301 114.928 137.885 115.28C137.469 115.632 137.005 115.808 136.493 115.808C136.141 115.808 135.837 115.752 135.581 115.64C135.325 115.512 135.117 115.36 134.957 115.184C134.621 115.44 134.285 115.64 133.949 115.784C133.613 115.928 133.277 116 132.941 116ZM133.301 115.472C133.733 115.472 134.197 115.264 134.693 114.848C134.565 114.656 134.469 114.456 134.405 114.248C134.341 114.04 134.309 113.848 134.309 113.672C134.309 113.384 134.373 113.136 134.501 112.928C134.645 112.72 134.861 112.616 135.149 112.616C135.357 112.616 135.525 112.696 135.653 112.856C135.797 113 135.869 113.168 135.869 113.36C135.869 113.408 135.861 113.456 135.845 113.504C135.845 113.536 135.837 113.576 135.821 113.624C136.093 113.256 136.349 112.824 136.589 112.328C137.117 111.192 137.381 110.256 137.381 109.52C137.381 109.152 137.309 108.864 137.165 108.656C137.021 108.448 136.805 108.344 136.517 108.344C136.181 108.344 135.813 108.488 135.413 108.776C135.029 109.064 134.653 109.448 134.285 109.928C133.933 110.408 133.621 110.944 133.349 111.536C133.093 112.08 132.885 112.608 132.725 113.12C132.581 113.616 132.509 114.048 132.509 114.416C132.509 114.736 132.573 114.992 132.701 115.184C132.829 115.376 133.029 115.472 133.301 115.472ZM141.028 116.072C140.356 116.072 139.9 115.896 139.66 115.544C139.42 115.176 139.3 114.744 139.3 114.248C139.3 113.736 139.372 113.208 139.516 112.664C139.66 112.12 139.788 111.664 139.9 111.296C140.156 110.4 140.476 109.448 140.86 108.44C141.26 107.416 141.692 106.416 142.156 105.44C142.636 104.448 143.108 103.56 143.572 102.776C143.94 102.152 144.332 101.688 144.748 101.384C145.18 101.064 145.556 100.904 145.876 100.904C146.132 100.904 146.332 101 146.476 101.192C146.636 101.368 146.716 101.64 146.716 102.008C146.716 102.264 146.668 102.568 146.572 102.92C146.492 103.272 146.348 103.672 146.14 104.12C145.58 105.368 144.908 106.616 144.124 107.864C143.356 109.112 142.38 110.28 141.196 111.368C141.132 111.576 141.044 111.824 140.932 112.112C140.836 112.384 140.748 112.664 140.668 112.952C140.572 113.384 140.524 113.752 140.524 114.056C140.524 114.552 140.62 114.928 140.812 115.184C141.02 115.424 141.268 115.544 141.556 115.544C141.812 115.544 142.084 115.456 142.372 115.28C142.66 115.088 142.932 114.816 143.188 114.464C143.572 113.904 143.916 113.336 144.22 112.76C144.54 112.168 144.78 111.712 144.94 111.392C145.036 111.216 145.14 111.128 145.252 111.128C145.332 111.128 145.372 111.176 145.372 111.272C145.372 111.352 145.348 111.44 145.3 111.536C145.156 111.856 144.964 112.272 144.724 112.784C144.5 113.28 144.212 113.784 143.86 114.296C143.524 114.792 143.116 115.216 142.636 115.568C142.172 115.904 141.636 116.072 141.028 116.072ZM141.388 110.6C141.964 110.008 142.524 109.328 143.068 108.56C143.612 107.776 144.116 106.968 144.58 106.136C145.06 105.288 145.46 104.488 145.78 103.736C145.892 103.496 145.98 103.232 146.044 102.944C146.124 102.656 146.164 102.416 146.164 102.224C146.164 102 146.108 101.888 145.996 101.888C145.932 101.888 145.836 101.952 145.708 102.08C145.58 102.192 145.412 102.392 145.204 102.68C144.9 103.08 144.564 103.624 144.196 104.312C143.844 105 143.484 105.736 143.116 106.52C142.748 107.304 142.412 108.064 142.108 108.8C141.804 109.52 141.564 110.12 141.388 110.6ZM146.138 116.072C145.466 116.072 145.01 115.896 144.77 115.544C144.53 115.176 144.41 114.744 144.41 114.248C144.41 113.736 144.482 113.208 144.626 112.664C144.77 112.12 144.898 111.664 145.01 111.296C145.266 110.4 145.586 109.448 145.97 108.44C146.37 107.416 146.802 106.416 147.266 105.44C147.746 104.448 148.218 103.56 148.682 102.776C149.05 102.152 149.442 101.688 149.858 101.384C150.29 101.064 150.666 100.904 150.986 100.904C151.242 100.904 151.442 101 151.586 101.192C151.746 101.368 151.826 101.64 151.826 102.008C151.826 102.264 151.778 102.568 151.682 102.92C151.602 103.272 151.458 103.672 151.25 104.12C150.69 105.368 150.018 106.616 149.234 107.864C148.466 109.112 147.49 110.28 146.306 111.368C146.242 111.576 146.154 111.824 146.042 112.112C145.946 112.384 145.858 112.664 145.778 112.952C145.682 113.384 145.634 113.752 145.634 114.056C145.634 114.552 145.73 114.928 145.922 115.184C146.13 115.424 146.378 115.544 146.666 115.544C146.922 115.544 147.194 115.456 147.482 115.28C147.77 115.088 148.042 114.816 148.298 114.464C148.682 113.904 149.026 113.336 149.33 112.76C149.65 112.168 149.89 111.712 150.05 111.392C150.146 111.216 150.25 111.128 150.362 111.128C150.442 111.128 150.482 111.176 150.482 111.272C150.482 111.352 150.458 111.44 150.41 111.536C150.266 111.856 150.074 112.272 149.834 112.784C149.61 113.28 149.322 113.784 148.97 114.296C148.634 114.792 148.226 115.216 147.746 115.568C147.282 115.904 146.746 116.072 146.138 116.072ZM146.498 110.6C147.074 110.008 147.634 109.328 148.178 108.56C148.722 107.776 149.226 106.968 149.69 106.136C150.17 105.288 150.57 104.488 150.89 103.736C151.002 103.496 151.09 103.232 151.154 102.944C151.234 102.656 151.274 102.416 151.274 102.224C151.274 102 151.218 101.888 151.106 101.888C151.042 101.888 150.946 101.952 150.818 102.08C150.69 102.192 150.522 102.392 150.314 102.68C150.01 103.08 149.674 103.624 149.306 104.312C148.954 105 148.594 105.736 148.226 106.52C147.858 107.304 147.522 108.064 147.218 108.8C146.914 109.52 146.674 110.12 146.498 110.6ZM155.231 116.072C155.055 116.088 154.855 116.048 154.631 115.952C154.407 115.856 154.207 115.68 154.031 115.424C153.871 115.168 153.791 114.808 153.791 114.344C153.791 113.96 153.863 113.496 154.007 112.952C153.815 113.256 153.567 113.632 153.263 114.08C152.959 114.512 152.631 114.896 152.279 115.232C151.975 115.52 151.687 115.728 151.415 115.856C151.143 115.984 150.895 116.048 150.671 116.048C150.255 116.048 149.919 115.864 149.663 115.496C149.407 115.112 149.279 114.616 149.279 114.008C149.279 113.368 149.439 112.64 149.759 111.824C150.079 111.008 150.599 110.16 151.319 109.28C151.783 108.72 152.343 108.272 152.999 107.936C153.671 107.584 154.327 107.408 154.967 107.408C155.335 107.408 155.687 107.472 156.023 107.6C156.359 107.712 156.655 107.904 156.911 108.176C157.023 108.288 157.079 108.416 157.079 108.56C157.079 108.656 157.039 108.736 156.959 108.8C156.879 108.864 156.775 108.88 156.647 108.848C156.471 108.288 156.095 108.008 155.519 108.008C155.247 108.008 154.935 108.096 154.583 108.272C154.039 108.56 153.471 109.032 152.879 109.688C152.303 110.344 151.799 111.024 151.367 111.728C151.303 111.824 151.199 112.008 151.055 112.28C150.927 112.552 150.799 112.856 150.671 113.192C150.543 113.528 150.455 113.856 150.407 114.176C150.391 114.272 150.383 114.344 150.383 114.392C150.383 114.424 150.383 114.48 150.383 114.56C150.383 115.088 150.583 115.352 150.983 115.352C151.463 115.352 152.007 115 152.615 114.296C153.031 113.784 153.407 113.248 153.743 112.688C154.079 112.128 154.423 111.528 154.775 110.888C155.015 110.456 155.239 110.096 155.447 109.808C155.655 109.52 155.951 109.376 156.335 109.376C156.511 109.376 156.687 109.4 156.863 109.448C157.039 109.496 157.223 109.504 157.415 109.472C157.287 109.6 157.111 109.84 156.887 110.192C156.679 110.544 156.455 110.944 156.215 111.392C155.975 111.84 155.759 112.296 155.567 112.76C155.375 113.224 155.239 113.624 155.159 113.96C155.143 114.056 155.119 114.192 155.087 114.368C155.071 114.544 155.063 114.672 155.063 114.752C155.063 115.2 155.191 115.424 155.447 115.424C155.703 115.424 155.975 115.272 156.263 114.968C156.567 114.664 156.863 114.288 157.151 113.84C157.439 113.392 157.703 112.944 157.943 112.496C158.183 112.032 158.375 111.656 158.519 111.368C158.583 111.208 158.679 111.128 158.807 111.128C158.887 111.128 158.927 111.184 158.927 111.296C158.927 111.344 158.903 111.432 158.855 111.56C158.663 111.96 158.431 112.416 158.159 112.928C157.887 113.424 157.591 113.912 157.271 114.392C156.951 114.856 156.615 115.248 156.263 115.568C155.927 115.872 155.583 116.04 155.231 116.072ZM161.341 116.024C161.037 116.024 160.733 115.904 160.429 115.664C160.125 115.408 159.973 115 159.973 114.44C159.973 114.008 160.077 113.512 160.285 112.952C160.477 112.408 160.733 111.88 161.053 111.368C161.389 110.856 161.629 110.44 161.773 110.12C161.821 109.992 161.845 109.88 161.845 109.784C161.845 109.496 161.661 109.288 161.293 109.16C160.941 109.032 160.477 108.96 159.901 108.944L159.613 109.736C159.437 110.248 159.189 110.848 158.869 111.536C158.565 112.224 158.221 112.888 157.837 113.528C157.469 114.168 157.085 114.68 156.685 115.064C156.653 115.096 156.613 115.112 156.565 115.112C156.501 115.112 156.461 115.072 156.445 114.992C156.413 114.912 156.445 114.816 156.541 114.704C157.165 113.872 157.725 112.952 158.221 111.944C158.717 110.92 159.133 109.88 159.469 108.824C159.821 107.768 160.077 106.792 160.237 105.896C160.285 105.64 160.373 105.456 160.501 105.344C160.629 105.216 160.765 105.152 160.909 105.152C161.117 105.152 161.309 105.256 161.485 105.464C161.661 105.656 161.749 105.936 161.749 106.304C161.749 106.368 161.741 106.44 161.725 106.52C161.725 106.6 161.717 106.68 161.701 106.76C161.637 107.096 161.445 107.416 161.125 107.72C160.821 108.008 160.573 108.224 160.381 108.368C160.541 108.384 160.709 108.4 160.885 108.416C161.061 108.416 161.253 108.416 161.461 108.416C162.213 108.416 162.957 108.368 163.693 108.272C163.725 108.368 163.741 108.44 163.741 108.488C163.741 108.696 163.677 108.96 163.549 109.28C163.437 109.6 163.317 109.888 163.189 110.144C163.125 110.288 162.997 110.552 162.805 110.936C162.613 111.304 162.405 111.728 162.181 112.208C161.957 112.672 161.765 113.136 161.605 113.6C161.461 114.048 161.389 114.432 161.389 114.752C161.389 115.168 161.549 115.376 161.869 115.376C162.109 115.376 162.373 115.224 162.661 114.92C162.949 114.6 163.229 114.216 163.501 113.768C163.789 113.304 164.045 112.856 164.269 112.424C164.509 111.976 164.693 111.624 164.821 111.368C164.885 111.208 164.973 111.128 165.085 111.128C165.149 111.128 165.181 111.184 165.181 111.296C165.181 111.36 165.157 111.456 165.109 111.584C164.933 111.952 164.725 112.368 164.485 112.832C164.245 113.296 163.973 113.752 163.669 114.2C163.381 114.648 163.061 115.04 162.709 115.376C162.373 115.696 162.005 115.904 161.605 116C161.557 116.016 161.469 116.024 161.341 116.024ZM166.446 116.096C165.854 116.096 165.318 115.904 164.838 115.52C164.374 115.136 164.142 114.552 164.142 113.768C164.142 113.048 164.318 112.28 164.67 111.464C165.022 110.632 165.47 109.904 166.014 109.28C166.478 108.736 166.998 108.288 167.574 107.936C168.15 107.584 168.694 107.408 169.206 107.408C169.558 107.408 169.862 107.504 170.118 107.696C170.39 107.904 170.526 108.2 170.526 108.584C170.526 108.984 170.374 109.424 170.07 109.904C169.766 110.384 169.334 110.832 168.774 111.248C168.534 111.424 168.23 111.592 167.862 111.752C167.494 111.912 167.126 112.048 166.758 112.16C166.39 112.256 166.086 112.304 165.846 112.304C165.766 112.496 165.686 112.752 165.606 113.072C165.542 113.392 165.51 113.72 165.51 114.056C165.51 114.456 165.59 114.816 165.75 115.136C165.91 115.456 166.206 115.616 166.638 115.616C167.166 115.616 167.646 115.464 168.078 115.16C168.51 114.856 168.894 114.48 169.23 114.032C169.566 113.568 169.846 113.104 170.07 112.64C170.31 112.176 170.502 111.784 170.646 111.464C170.742 111.24 170.87 111.128 171.03 111.128C171.11 111.128 171.15 111.168 171.15 111.248C171.15 111.312 171.126 111.392 171.078 111.488C170.854 111.968 170.614 112.48 170.358 113.024C170.102 113.552 169.798 114.056 169.446 114.536C169.094 115 168.67 115.376 168.174 115.664C167.694 115.952 167.118 116.096 166.446 116.096ZM166.014 111.872C166.238 111.872 166.614 111.792 167.142 111.632C167.67 111.456 168.15 111.184 168.582 110.816C168.998 110.448 169.318 110.048 169.542 109.616C169.766 109.168 169.878 108.792 169.878 108.488C169.878 108.136 169.75 107.96 169.494 107.96C169.302 107.96 169.038 108.088 168.702 108.344C168.366 108.6 167.95 109.032 167.454 109.64C167.15 110.024 166.862 110.44 166.59 110.888C166.318 111.336 166.126 111.664 166.014 111.872ZM171.248 116.096C170.464 116.096 169.904 115.896 169.568 115.496C169.248 115.08 169.088 114.648 169.088 114.2C169.088 113.832 169.176 113.496 169.352 113.192C169.544 112.888 169.768 112.728 170.024 112.712C170.344 112.088 170.688 111.408 171.056 110.672C171.44 109.936 171.792 109.224 172.112 108.536C172.336 108.072 172.616 107.624 172.952 107.192C173.304 106.76 173.688 106.512 174.104 106.448H174.344C174.472 106.448 174.584 106.456 174.68 106.472C174.792 106.488 174.904 106.52 175.016 106.568C175.192 106.648 175.28 106.768 175.28 106.928C175.28 107.024 175.224 107.072 175.112 107.072C175.064 107.072 175 107.048 174.92 107C174.728 106.92 174.56 106.88 174.416 106.88C174.32 106.88 174.232 106.904 174.152 106.952C173.848 107.112 173.632 107.336 173.504 107.624C173.392 107.912 173.336 108.216 173.336 108.536C173.336 108.792 173.36 109.056 173.408 109.328C173.472 109.584 173.544 109.816 173.624 110.024C173.8 110.472 173.984 110.912 174.176 111.344C174.384 111.776 174.488 112.24 174.488 112.736C174.488 113.216 174.328 113.728 174.008 114.272C173.688 114.8 173.28 115.224 172.784 115.544L172.952 115.568C173.032 115.584 173.088 115.592 173.12 115.592C173.152 115.592 173.176 115.592 173.192 115.592C173.56 115.592 173.904 115.488 174.224 115.28C174.56 115.056 174.856 114.784 175.112 114.464C175.368 114.144 175.656 113.696 175.976 113.12C176.312 112.544 176.632 111.936 176.936 111.296C176.984 111.216 177.04 111.176 177.104 111.176C177.184 111.176 177.24 111.208 177.272 111.272C177.32 111.32 177.328 111.384 177.296 111.464C177.088 111.912 176.848 112.4 176.576 112.928C176.32 113.44 176.024 113.936 175.688 114.416C175.352 114.88 174.96 115.264 174.512 115.568C174.08 115.856 173.592 116 173.048 116C172.92 116 172.784 115.992 172.64 115.976C172.496 115.96 172.352 115.928 172.208 115.88C172.048 115.944 171.88 115.992 171.704 116.024C171.544 116.072 171.392 116.096 171.248 116.096ZM171.968 115.376C172.24 115.152 172.48 114.824 172.688 114.392C172.912 113.96 173.024 113.392 173.024 112.688C173.024 112.064 172.96 111.4 172.832 110.696C172.704 109.992 172.64 109.368 172.64 108.824C172.64 108.712 172.64 108.616 172.64 108.536C172.656 108.44 172.672 108.352 172.688 108.272C172.48 108.704 172.24 109.208 171.968 109.784C171.696 110.344 171.424 110.888 171.152 111.416C170.88 111.944 170.648 112.392 170.456 112.76C170.456 112.76 170.496 112.768 170.576 112.784C170.672 112.784 170.76 112.84 170.84 112.952C170.92 113.048 170.952 113.248 170.936 113.552C170.92 113.952 171.008 114.328 171.2 114.68C171.408 115.016 171.664 115.248 171.968 115.376ZM171.056 115.712C171.152 115.712 171.24 115.704 171.32 115.688C171.4 115.656 171.472 115.632 171.536 115.616C171.296 115.44 171.08 115.208 170.888 114.92C170.712 114.616 170.608 114.232 170.576 113.768C170.288 114.072 170.144 114.4 170.144 114.752C170.144 115.008 170.224 115.232 170.384 115.424C170.544 115.616 170.768 115.712 171.056 115.712Z" fill="#F8F3F3"/>
</svg>
