<svg width="61" height="24" viewBox="0 0 61 24" fill="none" xmlns="http://www.w3.org/2000/svg">
<path d="M15.2698 24C14.4198 24 13.821 23.6667 13.4733 23C13.1256 22.3524 12.9518 21.5905 12.9518 20.7143C12.9518 19.9333 13.058 19.1619 13.2705 18.4C13.5023 17.6381 13.7727 17.0571 14.0818 16.6571C13.5603 17.2667 12.9131 17.9619 12.1405 18.7429C11.3678 19.5238 10.5179 20.2762 9.59069 21C8.66349 21.7238 7.70732 22.3238 6.72218 22.8C5.73703 23.2762 4.76154 23.5143 3.79571 23.5143C3.50596 23.5143 3.21622 23.4857 2.92647 23.4286C2.65603 23.3905 2.3856 23.3143 2.11517 23.2C1.40045 22.9143 0.869248 22.4095 0.521549 21.6857C0.173851 20.9429 0 20.0571 0 19.0286C0 17.9429 0.183509 16.781 0.550525 15.5429C0.936856 14.2857 1.49704 13.0095 2.23107 11.7143C2.57877 11.0857 2.9651 10.4667 3.39006 9.85714C3.83434 9.22857 4.3076 8.63809 4.80983 8.08571C4.21102 7.81905 3.6605 7.52381 3.15826 7.2C2.65603 6.85714 2.23107 6.48571 1.88337 6.08571C1.65157 5.81905 1.47772 5.50476 1.36182 5.14286C1.24592 4.78095 1.18797 4.42857 1.18797 4.08572C1.18797 3.47619 1.33284 3.07619 1.62259 2.88571C1.71918 2.73333 1.83508 2.65714 1.97029 2.65714C2.14414 2.65714 2.23107 2.76191 2.23107 2.97143C2.23107 3.10476 2.19243 3.24762 2.11517 3.4C2.01859 3.64762 1.97029 3.87619 1.97029 4.08572C1.97029 4.39048 2.04756 4.67619 2.20209 4.94286C2.35663 5.19048 2.54013 5.42857 2.75262 5.65714C3.37075 6.38095 4.22068 6.98095 5.30241 7.45714C6.53867 6.12381 7.89083 4.89524 9.35889 3.77143C10.8463 2.62857 12.4399 1.71429 14.1397 1.02857C15.8396 0.342858 17.6264 0 19.5001 0C21.0647 0 22.2914 0.342858 23.1799 1.02857C24.0685 1.69524 24.5128 2.56191 24.5128 3.62857C24.5128 4.14286 24.3582 4.70476 24.0492 5.31429C23.7401 5.90476 23.2379 6.48572 22.5425 7.05714C21.8471 7.60953 20.9199 8.09524 19.7609 8.51429C18.6212 8.91429 17.2014 9.19048 15.5016 9.34286C14.9028 9.4 14.3619 9.44762 13.879 9.48572C13.4154 9.50476 12.9131 9.51429 12.3723 9.51429C11.3678 9.51429 10.3923 9.44762 9.44582 9.31429C8.51862 9.18095 7.59142 8.97143 6.66423 8.68572C6.31653 9.16191 5.87225 9.80953 5.33138 10.6286C4.80983 11.4476 4.28829 12.3238 3.76674 13.2571C3.24519 14.1905 2.81057 15.0762 2.46287 15.9143C2.1538 16.7143 1.922 17.4476 1.76747 18.1143C1.61294 18.7619 1.53567 19.3429 1.53567 19.8571C1.53567 20.7905 1.75781 21.4952 2.20209 21.9714C2.64638 22.4286 3.24519 22.6571 3.99854 22.6571C4.73257 22.6571 5.56318 22.4476 6.49038 22.0286C7.43689 21.6095 8.42204 20.981 9.44582 20.1429C10.4696 19.3048 11.4644 18.3619 12.4302 17.3143C13.4154 16.2667 14.3136 15.2 15.1249 14.1143C15.9362 13.0286 16.593 12.0286 17.0952 11.1143C17.4236 10.5048 17.7423 10.0762 18.0514 9.82857C18.3604 9.5619 18.6212 9.42857 18.8337 9.42857C19.0462 9.42857 19.2104 9.51429 19.3263 9.68572C19.4422 9.8381 19.5001 10.0476 19.5001 10.3143C19.5001 10.8476 19.2586 11.381 18.7757 11.9143C18.2349 12.5048 17.7037 13.2286 17.1821 14.0857C16.6606 14.9429 16.197 15.8476 15.7913 16.8C15.3857 17.7524 15.0959 18.6857 14.9221 19.6C14.8641 19.9048 14.8255 20.1905 14.8062 20.4571C14.7869 20.7238 14.7772 20.9619 14.7772 21.1714C14.7772 21.8762 14.8834 22.381 15.0959 22.6857C15.3277 22.9905 15.6271 23.1429 15.9941 23.1429C16.4384 23.1429 16.9503 22.9429 17.5298 22.5429C18.1093 22.1429 18.6695 21.6095 19.2104 20.9429C19.674 20.3333 20.1182 19.6857 20.5432 19C20.9875 18.3143 21.3931 17.6 21.7601 16.8571C21.8181 16.7238 21.8954 16.6286 21.9919 16.5714C22.1078 16.4952 22.1851 16.4571 22.2237 16.4571C22.3203 16.4571 22.3686 16.5143 22.3686 16.6286C22.3686 16.7048 22.3396 16.819 22.2817 16.9714C22.1078 17.3524 21.876 17.8095 21.5863 18.3429C21.2965 18.8762 20.9778 19.4286 20.6301 20C20.2824 20.5524 19.9251 21.0667 19.5581 21.5429C19.0558 22.1905 18.4184 22.7619 17.6457 23.2571C16.8924 23.7524 16.1004 24 15.2698 24ZM12.1115 8.82857C13.116 8.82857 14.2363 8.77143 15.4726 8.65714C17.0759 8.52381 18.4667 8.20952 19.645 7.71428C20.8233 7.21905 21.7312 6.59048 22.3686 5.82857C23.0061 5.06667 23.3248 4.21905 23.3248 3.28571C23.3248 2.44762 22.9674 1.80952 22.2527 1.37143C21.5573 0.933334 20.6688 0.714286 19.587 0.714286C17.7906 0.714286 16.1487 1.06667 14.6613 1.77143C13.1932 2.45714 11.8411 3.3619 10.6048 4.48571C9.38787 5.60952 8.22887 6.81905 7.12783 8.11429C8.59589 8.59048 10.2571 8.82857 12.1115 8.82857ZM28.2454 22.1714C27.7238 22.1714 27.2892 21.9143 26.9415 21.4C26.8449 21.2476 26.758 21.0476 26.6807 20.8C26.6035 20.5524 26.5648 20.2762 26.5648 19.9714C26.5648 19.8 26.5745 19.6286 26.5938 19.4571C26.6131 19.2667 26.6518 19.0762 26.7097 18.8857C26.4393 19.3048 26.1206 19.7714 25.7535 20.2857C25.4058 20.781 25.0002 21.219 24.5366 21.6C24.0923 21.9619 23.5901 22.1429 23.0299 22.1429C22.8367 22.1429 22.6339 22.1143 22.4214 22.0571C21.8999 21.9048 21.5232 21.6381 21.2914 21.2571C21.0789 20.8762 20.9727 20.4191 20.9727 19.8857C20.9727 19.2952 21.0886 18.6476 21.3204 17.9429C21.5715 17.2381 21.8806 16.5524 22.2476 15.8857C22.6339 15.219 23.0299 14.6476 23.4356 14.1714C24.0151 13.5048 24.6815 12.9714 25.4348 12.5714C26.1882 12.1714 26.9512 11.9714 27.7238 11.9714C28.4192 11.9714 29.076 12.1524 29.6941 12.5143C29.9839 11.981 30.2929 11.3905 30.6213 10.7429C30.9497 10.0762 31.2781 9.41905 31.6065 8.77143C31.9349 8.12381 32.2246 7.53333 32.4757 7C32.7268 6.44762 32.92 6.02857 33.0552 5.74286C33.345 5.07619 33.6154 4.65714 33.8665 4.48571C34.137 4.29524 34.4557 4.2 34.8227 4.2C35.0352 4.2 35.267 4.22857 35.5181 4.28571C35.7885 4.32381 36.0493 4.33333 36.3004 4.31429C36.1845 4.42857 35.9431 4.76191 35.576 5.31429C35.2283 5.84762 34.813 6.53333 34.3301 7.37143C33.8472 8.20953 33.3257 9.13333 32.7655 10.1429C32.2246 11.1333 31.6837 12.1429 31.1429 13.1714C30.6213 14.181 30.1288 15.1429 29.6652 16.0571C29.2209 16.9524 28.8635 17.7238 28.5931 18.3714C28.5158 18.5238 28.3999 18.8381 28.2454 19.3143C28.1102 19.7714 28.0426 20.1714 28.0426 20.5143C28.0426 20.7619 28.1005 20.981 28.2164 21.1714C28.3323 21.3429 28.5255 21.4286 28.7959 21.4286C29.1629 21.4286 29.5299 21.2476 29.897 20.8857C30.2833 20.5048 30.6503 20.0476 30.998 19.5143C31.3457 18.9619 31.6548 18.4286 31.9252 17.9143C32.1956 17.381 32.3985 16.9619 32.5337 16.6571C32.6303 16.4476 32.7462 16.3429 32.8814 16.3429C32.9973 16.3429 33.0552 16.4286 33.0552 16.6C33.0552 16.619 33.0552 16.6571 33.0552 16.7143C33.0552 16.7524 33.0359 16.8 32.9973 16.8571C32.8234 17.2571 32.582 17.7524 32.2729 18.3429C31.9832 18.9333 31.6355 19.5238 31.2298 20.1143C30.8242 20.7048 30.3702 21.2 29.868 21.6C29.3658 21.981 28.8249 22.1714 28.2454 22.1714ZM23.2327 21.3143C23.5032 21.3143 23.8412 21.1714 24.2469 20.8857C24.6525 20.5809 25.0871 20.1048 25.5507 19.4571C26.0916 18.6952 26.7097 17.7429 27.4051 16.6C28.1005 15.4571 28.7863 14.2476 29.4623 12.9714C29.2112 12.7429 28.9215 12.6286 28.5931 12.6286C28.0522 12.6286 27.4438 12.8762 26.7677 13.3714C26.1109 13.8667 25.4638 14.4952 24.8264 15.2571C24.2082 16.0191 23.6867 16.7905 23.2617 17.5714C22.972 18.1048 22.7595 18.5905 22.6243 19.0286C22.5084 19.4667 22.4504 19.8476 22.4504 20.1714C22.4504 20.9333 22.7112 21.3143 23.2327 21.3143ZM38.7962 22.2571C38.5837 22.2762 38.3422 22.2286 38.0718 22.1143C37.8014 22 37.5599 21.7905 37.3474 21.4857C37.1543 21.181 37.0577 20.7524 37.0577 20.2C37.0577 19.7429 37.1446 19.1905 37.3185 18.5429C37.0867 18.9048 36.7872 19.3524 36.4202 19.8857C36.0532 20.4 35.6572 20.8571 35.2323 21.2571C34.8652 21.6 34.5175 21.8476 34.1892 22C33.8608 22.1524 33.5614 22.2286 33.2909 22.2286C32.7887 22.2286 32.3831 22.0095 32.074 21.5714C31.7649 21.1143 31.6104 20.5238 31.6104 19.8C31.6104 19.0381 31.8036 18.1714 32.1899 17.2C32.5762 16.2286 33.204 15.219 34.0733 14.1714C34.6334 13.5048 35.3095 12.9714 36.1015 12.5714C36.9128 12.1524 37.7048 11.9429 38.4775 11.9429C38.9217 11.9429 39.3467 12.019 39.7523 12.1714C40.158 12.3048 40.5154 12.5333 40.8244 12.8571C40.9596 12.9905 41.0272 13.1429 41.0272 13.3143C41.0272 13.4286 40.9789 13.5238 40.8824 13.6C40.7858 13.6762 40.6602 13.6952 40.5057 13.6571C40.2932 12.9905 39.8393 12.6571 39.1439 12.6571C38.8155 12.6571 38.4388 12.7619 38.0139 12.9714C37.3571 13.3143 36.6713 13.8762 35.9566 14.6571C35.2612 15.4381 34.6528 16.2476 34.1312 17.0857C34.054 17.2 33.9284 17.419 33.7545 17.7429C33.6 18.0667 33.4455 18.4286 33.2909 18.8286C33.1364 19.2286 33.0302 19.619 32.9722 20C32.9529 20.1143 32.9432 20.2 32.9432 20.2571C32.9432 20.2952 32.9432 20.3619 32.9432 20.4571C32.9432 21.0857 33.1847 21.4 33.6676 21.4C34.2471 21.4 34.9039 20.981 35.6379 20.1429C36.1401 19.5333 36.5941 18.8952 36.9997 18.2286C37.4054 17.5619 37.8207 16.8476 38.2457 16.0857C38.5354 15.5714 38.8058 15.1429 39.0569 14.8C39.3081 14.4571 39.6654 14.2857 40.129 14.2857C40.3415 14.2857 40.554 14.3143 40.7665 14.3714C40.979 14.4286 41.2011 14.4381 41.4329 14.4C41.2784 14.5524 41.0659 14.8381 40.7954 15.2571C40.5443 15.6762 40.2739 16.1524 39.9841 16.6857C39.6944 17.219 39.4336 17.7619 39.2018 18.3143C38.97 18.8667 38.8058 19.3429 38.7092 19.7429C38.6899 19.8571 38.661 20.019 38.6223 20.2286C38.603 20.4381 38.5933 20.5905 38.5933 20.6857C38.5933 21.219 38.7479 21.4857 39.0569 21.4857C39.366 21.4857 39.6944 21.3048 40.0421 20.9429C40.4091 20.581 40.7665 20.1333 41.1142 19.6C41.4619 19.0667 41.7806 18.5333 42.0703 18C42.3601 17.4476 42.5919 17 42.7657 16.6571C42.843 16.4667 42.9589 16.3714 43.1134 16.3714C43.21 16.3714 43.2583 16.4381 43.2583 16.5714C43.2583 16.6286 43.2293 16.7333 43.1714 16.8857C42.9396 17.3619 42.6595 17.9048 42.3311 18.5143C42.0027 19.1048 41.6454 19.6857 41.259 20.2571C40.8727 20.8095 40.4671 21.2762 40.0421 21.6571C39.6364 22.019 39.2211 22.219 38.7962 22.2571ZM46.1721 22.2C45.8051 22.2 45.4381 22.0571 45.071 21.7714C44.704 21.4667 44.5205 20.981 44.5205 20.3143C44.5205 19.8 44.6461 19.2095 44.8972 18.5429C45.129 17.8952 45.4381 17.2667 45.8244 16.6571C46.23 16.0476 46.5198 15.5524 46.6936 15.1714C46.7516 15.019 46.7806 14.8857 46.7806 14.7714C46.7806 14.4286 46.5584 14.181 46.1141 14.0286C45.6892 13.8762 45.129 13.7905 44.4336 13.7714L44.0859 14.7143C43.8734 15.3238 43.574 16.0381 43.1877 16.8571C42.8207 17.6762 42.4054 18.4667 41.9418 19.2286C41.4975 19.9905 41.0339 20.6 40.551 21.0571C40.5123 21.0952 40.464 21.1143 40.4061 21.1143C40.3288 21.1143 40.2805 21.0667 40.2612 20.9714C40.2226 20.8762 40.2612 20.7619 40.3771 20.6286C41.1305 19.6381 41.8065 18.5429 42.4054 17.3429C43.0042 16.1238 43.5064 14.8857 43.9121 13.6286C44.337 12.3714 44.6461 11.2095 44.8392 10.1429C44.8972 9.8381 45.0034 9.61905 45.158 9.48572C45.3125 9.33334 45.4767 9.25714 45.6505 9.25714C45.9017 9.25714 46.1335 9.38095 46.3459 9.62857C46.5584 9.85714 46.6647 10.1905 46.6647 10.6286C46.6647 10.7048 46.655 10.7905 46.6357 10.8857C46.6357 10.981 46.626 11.0762 46.6067 11.1714C46.5295 11.5714 46.2977 11.9524 45.9113 12.3143C45.5443 12.6571 45.2449 12.9143 45.0131 13.0857C45.2063 13.1048 45.4091 13.1238 45.6216 13.1429C45.8341 13.1429 46.0659 13.1429 46.317 13.1429C47.2249 13.1429 48.1231 13.0857 49.0116 12.9714C49.0503 13.0857 49.0696 13.1714 49.0696 13.2286C49.0696 13.4762 48.9923 13.7905 48.8378 14.1714C48.7026 14.5524 48.5577 14.8952 48.4032 15.2C48.3259 15.3714 48.1714 15.6857 47.9396 16.1429C47.7078 16.581 47.4566 17.0857 47.1862 17.6571C46.9158 18.2095 46.684 18.7619 46.4908 19.3143C46.317 19.8476 46.23 20.3048 46.23 20.6857C46.23 21.181 46.4232 21.4286 46.8095 21.4286C47.0993 21.4286 47.418 21.2476 47.7657 20.8857C48.1134 20.5048 48.4515 20.0476 48.7798 19.5143C49.1275 18.9619 49.4366 18.4286 49.707 17.9143C49.9968 17.381 50.2189 16.9619 50.3735 16.6571C50.4507 16.4667 50.557 16.3714 50.6922 16.3714C50.7694 16.3714 50.8081 16.4381 50.8081 16.5714C50.8081 16.6476 50.7791 16.7619 50.7212 16.9143C50.5087 17.3524 50.2576 17.8476 49.9678 18.4C49.6781 18.9524 49.3497 19.4952 48.9827 20.0286C48.635 20.5619 48.2486 21.0286 47.8237 21.4286C47.418 21.8095 46.9737 22.0571 46.4908 22.1714C46.4329 22.1905 46.3266 22.2 46.1721 22.2ZM56.5379 22.2571C56.3254 22.2762 56.0839 22.2286 55.8135 22.1143C55.5431 22 55.3016 21.7905 55.0891 21.4857C54.896 21.181 54.7994 20.7524 54.7994 20.2C54.7994 19.7429 54.8863 19.1905 55.0601 18.5429C54.8283 18.9048 54.5289 19.3524 54.1619 19.8857C53.7949 20.4 53.3989 20.8571 52.974 21.2571C52.6069 21.6 52.2592 21.8476 51.9309 22C51.6025 22.1524 51.3031 22.2286 51.0326 22.2286C50.5304 22.2286 50.1248 22.0095 49.8157 21.5714C49.5066 21.1143 49.3521 20.5238 49.3521 19.8C49.3521 19.0381 49.5453 18.1714 49.9316 17.2C50.3179 16.2286 50.9457 15.219 51.815 14.1714C52.3751 13.5048 53.0512 12.9714 53.8432 12.5714C54.6545 12.1524 55.4465 11.9429 56.2191 11.9429C56.6634 11.9429 57.0884 12.019 57.494 12.1714C57.8997 12.3048 58.257 12.5333 58.5661 12.8571C58.7013 12.9905 58.7689 13.1429 58.7689 13.3143C58.7689 13.4286 58.7206 13.5238 58.6241 13.6C58.5275 13.6762 58.4019 13.6952 58.2474 13.6571C58.0349 12.9905 57.581 12.6571 56.8856 12.6571C56.5572 12.6571 56.1805 12.7619 55.7555 12.9714C55.0988 13.3143 54.413 13.8762 53.6983 14.6571C53.0029 15.4381 52.3945 16.2476 51.8729 17.0857C51.7956 17.2 51.6701 17.419 51.4962 17.7429C51.3417 18.0667 51.1872 18.4286 51.0326 18.8286C50.8781 19.2286 50.7719 19.619 50.7139 20C50.6946 20.1143 50.6849 20.2 50.6849 20.2571C50.6849 20.2952 50.6849 20.3619 50.6849 20.4571C50.6849 21.0857 50.9264 21.4 51.4093 21.4C51.9888 21.4 52.6456 20.981 53.3796 20.1429C53.8818 19.5333 54.3358 18.8952 54.7414 18.2286C55.1471 17.5619 55.5624 16.8476 55.9873 16.0857C56.2771 15.5714 56.5475 15.1429 56.7986 14.8C57.0498 14.4571 57.4071 14.2857 57.8707 14.2857C58.0832 14.2857 58.2957 14.3143 58.5082 14.3714C58.7206 14.4286 58.9428 14.4381 59.1746 14.4C59.0201 14.5524 58.8076 14.8381 58.5371 15.2571C58.286 15.6762 58.0156 16.1524 57.7258 16.6857C57.4361 17.219 57.1753 17.7619 56.9435 18.3143C56.7117 18.8667 56.5475 19.3429 56.4509 19.7429C56.4316 19.8571 56.4026 20.019 56.364 20.2286C56.3447 20.4381 56.335 20.5905 56.335 20.6857C56.335 21.219 56.4896 21.4857 56.7986 21.4857C57.1077 21.4857 57.4361 21.3048 57.7838 20.9429C58.1508 20.581 58.5082 20.1333 58.8559 19.6C59.2036 19.0667 59.5223 18.5333 59.812 18C60.1018 17.4476 60.3336 17 60.5074 16.6571C60.5847 16.4667 60.7006 16.3714 60.8551 16.3714C60.9517 16.3714 61 16.4381 61 16.5714C61 16.6286 60.971 16.7333 60.9131 16.8857C60.6813 17.3619 60.4012 17.9048 60.0728 18.5143C59.7444 19.1048 59.3871 19.6857 59.0007 20.2571C58.6144 20.8095 58.2088 21.2762 57.7838 21.6571C57.3781 22.019 56.9628 22.219 56.5379 22.2571Z" fill="white"/>
</svg>
