<svg width="209" height="125" viewBox="0 0 209 125" fill="none" xmlns="http://www.w3.org/2000/svg">
<path d="M52.3177 84C49.4057 84 47.354 82.8333 46.1627 80.5C44.9714 78.2333 44.3758 75.5667 44.3758 72.5C44.3758 69.7667 44.7398 67.0667 45.4678 64.4C46.262 61.7333 47.1885 59.7 48.2475 58.3C46.4605 60.4333 44.2434 62.8667 41.5961 65.6C38.9487 68.3333 36.0367 70.9667 32.8599 73.5C29.6831 76.0333 26.4071 78.1333 23.0317 79.8C19.6564 81.4667 16.3141 82.3 13.005 82.3C12.0122 82.3 11.0195 82.2 10.0267 82C9.10018 81.8667 8.17361 81.6 7.24705 81.2C4.79828 80.2 2.97824 78.4333 1.78695 75.9C0.595652 73.3 0 70.2 0 66.6C0 62.8 0.628745 58.7333 1.88622 54.4C3.20988 50 5.1292 45.5333 7.64415 41C8.83545 38.8 10.1591 36.6333 11.6151 34.5C13.1373 32.3 14.7588 30.2333 16.4796 28.3C14.4279 27.3667 12.5417 26.3333 10.8209 25.2C9.10018 24 7.64415 22.7 6.45286 21.3C5.65866 20.3667 5.06301 19.2667 4.66591 18C4.26881 16.7333 4.07026 15.5 4.07026 14.3C4.07026 12.1667 4.56663 10.7667 5.55938 10.1C5.89029 9.56667 6.28739 9.3 6.75067 9.3C7.34632 9.3 7.64415 9.66667 7.64415 10.4C7.64415 10.8667 7.51178 11.3667 7.24705 11.9C6.91614 12.7667 6.75067 13.5667 6.75067 14.3C6.75067 15.3667 7.01541 16.3667 7.54488 17.3C8.07434 18.1667 8.70308 19 9.43109 19.8C11.549 22.3333 14.461 24.4333 18.1673 26.1C22.403 21.4333 27.0358 17.1333 32.0657 13.2C37.1618 9.2 42.6219 6 48.446 3.6C54.2701 1.2 60.3921 0 66.8118 0C72.1727 0 76.3753 1.2 79.4197 3.6C82.4641 5.93333 83.9863 8.96667 83.9863 12.7C83.9863 14.5 83.4569 16.4667 82.3979 18.6C81.339 20.6667 79.6183 22.7 77.2357 24.7C74.8531 26.6333 71.6763 28.3333 67.7053 29.8C63.8005 31.2 58.936 32.1667 53.1119 32.7C51.0602 32.9 49.2071 33.0667 47.5526 33.2C45.9642 33.2667 44.2434 33.3 42.3903 33.3C38.9487 33.3 35.6065 33.0667 32.3635 32.6C29.1867 32.1333 26.01 31.4 22.8332 30.4C21.6419 32.0667 20.1197 34.3333 18.2665 37.2C16.4796 40.0667 14.6926 43.1333 12.9057 46.4C11.1188 49.6667 9.62964 52.7667 8.43835 55.7C7.37942 58.5 6.58522 61.0667 6.05576 63.4C5.52629 65.6667 5.26156 67.7 5.26156 69.5C5.26156 72.7667 6.02267 75.2333 7.54488 76.9C9.06709 78.5 11.1188 79.3 13.6999 79.3C16.2149 79.3 19.0607 78.5667 22.2375 77.1C25.4805 75.6333 28.8558 73.4333 32.3635 70.5C35.8712 67.5667 39.2797 64.2667 42.5888 60.6C45.9642 56.9333 49.0417 53.2 51.8214 49.4C54.601 45.6 56.8513 42.1 58.572 38.9C59.6971 36.7667 60.7892 35.2667 61.8481 34.4C62.907 33.4667 63.8005 33 64.5285 33C65.2565 33 65.8191 33.3 66.2162 33.9C66.6133 34.4333 66.8118 35.1667 66.8118 36.1C66.8118 37.9667 65.9845 39.8333 64.33 41.7C62.4768 43.7667 60.6568 46.3 58.8699 49.3C57.0829 52.3 55.4945 55.4667 54.1047 58.8C52.7148 62.1333 51.7221 65.4 51.1264 68.6C50.9279 69.6667 50.7955 70.6667 50.7293 71.6C50.6632 72.5333 50.6301 73.3667 50.6301 74.1C50.6301 76.5667 50.9941 78.3333 51.7221 79.4C52.5163 80.4667 53.5421 81 54.7996 81C56.3218 81 58.0757 80.3 60.0611 78.9C62.0466 77.5 63.966 75.6333 65.8191 73.3C67.4075 71.1667 68.9297 68.9 70.3857 66.5C71.9079 64.1 73.2978 61.6 74.5553 59C74.7538 58.5333 75.0185 58.2 75.3494 58C75.7465 57.7333 76.0113 57.6 76.1436 57.6C76.4746 57.6 76.64 57.8 76.64 58.2C76.64 58.4667 76.5407 58.8667 76.3422 59.4C75.7465 60.7333 74.9523 62.3333 73.9596 64.2C72.9669 66.0667 71.8748 68 70.6835 70C69.4922 71.9333 68.2679 73.7333 67.0104 75.4C65.2896 77.6667 63.1056 79.6667 60.4583 81.4C57.8771 83.1333 55.1636 84 52.3177 84ZM41.4968 30.9C44.9383 30.9 48.7769 30.7 53.0127 30.3C58.5059 29.8333 63.271 28.7333 67.3082 27C71.3454 25.2667 74.456 23.0667 76.64 20.4C78.8241 17.7333 79.9161 14.7667 79.9161 11.5C79.9161 8.56667 78.6917 6.33333 76.2429 4.8C73.8603 3.26667 70.8159 2.5 67.1096 2.5C60.9546 2.5 55.3291 3.73334 50.233 6.2C45.203 8.6 40.5702 11.7667 36.3345 15.7C32.165 19.6333 28.194 23.8667 24.4216 28.4C29.4515 30.0667 35.1432 30.9 41.4968 30.9ZM96.7752 77.6C94.9882 77.6 93.4991 76.7 92.3078 74.9C91.9769 74.3667 91.6791 73.6667 91.4144 72.8C91.1496 71.9333 91.0173 70.9667 91.0173 69.9C91.0173 69.3 91.0503 68.7 91.1165 68.1C91.1827 67.4333 91.3151 66.7667 91.5136 66.1C90.5871 67.5667 89.495 69.2 88.2376 71C87.0463 72.7333 85.6564 74.2667 84.068 75.6C82.5458 76.8667 80.8251 77.5 78.9058 77.5C78.2439 77.5 77.549 77.4 76.821 77.2C75.034 76.6667 73.7435 75.7333 72.9493 74.4C72.2213 73.0667 71.8572 71.4667 71.8572 69.6C71.8572 67.5333 72.2544 65.2667 73.0486 62.8C73.9089 60.3333 74.9678 57.9333 76.2253 55.6C77.549 53.2667 78.9057 51.2667 80.2956 49.6C82.2811 47.2667 84.5644 45.4 87.1455 44C89.7267 42.6 92.3409 41.9 94.9882 41.9C97.3708 41.9 99.621 42.5333 101.739 43.8C102.732 41.9333 103.791 39.8667 104.916 37.6C106.041 35.2667 107.166 32.9667 108.291 30.7C109.416 28.4333 110.409 26.3667 111.269 24.5C112.13 22.5667 112.791 21.1 113.255 20.1C114.248 17.7667 115.174 16.3 116.034 15.7C116.961 15.0333 118.053 14.7 119.311 14.7C120.039 14.7 120.833 14.8 121.693 15C122.62 15.1333 123.513 15.1667 124.374 15.1C123.976 15.5 123.149 16.6667 121.892 18.6C120.7 20.4667 119.277 22.8667 117.623 25.8C115.968 28.7333 114.181 31.9667 112.262 35.5C110.409 38.9667 108.556 42.5 106.703 46.1C104.916 49.6333 103.228 53 101.64 56.2C100.117 59.3333 98.893 62.0333 97.9665 64.3C97.7017 64.8333 97.3046 65.9333 96.7752 67.6C96.3119 69.2 96.0803 70.6 96.0803 71.8C96.0803 72.6667 96.2788 73.4333 96.6759 74.1C97.073 74.7 97.7348 75 98.6614 75C99.9189 75 101.176 74.3667 102.434 73.1C103.757 71.7667 105.015 70.1667 106.206 68.3C107.398 66.3667 108.457 64.5 109.383 62.7C110.31 60.8333 111.005 59.3667 111.468 58.3C111.799 57.5667 112.196 57.2 112.659 57.2C113.056 57.2 113.255 57.5 113.255 58.1C113.255 58.1667 113.255 58.3 113.255 58.5C113.255 58.6333 113.189 58.8 113.056 59C112.461 60.4 111.633 62.1333 110.574 64.2C109.582 66.2667 108.39 68.3333 107 70.4C105.611 72.4667 104.055 74.2 102.335 75.6C100.614 76.9333 98.7607 77.6 96.7752 77.6ZM79.6007 74.6C80.5272 74.6 81.6854 74.1 83.0753 73.1C84.4651 72.0333 85.9542 70.3667 87.5426 68.1C89.3958 65.4333 91.5136 62.1 93.8962 58.1C96.2788 54.1 98.6283 49.8667 100.945 45.4C100.084 44.6 99.0916 44.2 97.9665 44.2C96.1133 44.2 94.0286 45.0667 91.7122 46.8C89.4619 48.5333 87.2448 50.7333 85.0608 53.4C82.9429 56.0667 81.156 58.7667 79.6999 61.5C78.7072 63.3667 77.9792 65.0667 77.5159 66.6C77.1188 68.1333 76.9202 69.4667 76.9202 70.6C76.9202 73.2667 77.8137 74.6 79.6007 74.6ZM132.925 77.9C132.197 77.9667 131.369 77.8 130.443 77.4C129.516 77 128.689 76.2667 127.961 75.2C127.299 74.1333 126.968 72.6333 126.968 70.7C126.968 69.1 127.266 67.1667 127.862 64.9C127.067 66.1667 126.042 67.7333 124.784 69.6C123.527 71.4 122.17 73 120.714 74.4C119.456 75.6 118.265 76.4667 117.14 77C116.015 77.5333 114.989 77.8 114.062 77.8C112.342 77.8 110.952 77.0333 109.893 75.5C108.834 73.9 108.304 71.8333 108.304 69.3C108.304 66.6333 108.966 63.6 110.29 60.2C111.614 56.8 113.765 53.2667 116.743 49.6C118.662 47.2667 120.979 45.4 123.692 44C126.472 42.5333 129.185 41.8 131.833 41.8C133.355 41.8 134.811 42.0667 136.201 42.6C137.59 43.0667 138.815 43.8667 139.874 45C140.337 45.4667 140.569 46 140.569 46.6C140.569 47 140.403 47.3333 140.072 47.6C139.741 47.8667 139.311 47.9333 138.782 47.8C138.054 45.4667 136.498 44.3 134.116 44.3C132.991 44.3 131.7 44.6667 130.244 45.4C127.994 46.6 125.644 48.5667 123.196 51.3C120.813 54.0333 118.728 56.8667 116.941 59.8C116.677 60.2 116.246 60.9667 115.651 62.1C115.121 63.2333 114.592 64.5 114.062 65.9C113.533 67.3 113.169 68.6667 112.97 70C112.904 70.4 112.871 70.7 112.871 70.9C112.871 71.0333 112.871 71.2667 112.871 71.6C112.871 73.8 113.698 74.9 115.353 74.9C117.338 74.9 119.589 73.4333 122.104 70.5C123.824 68.3667 125.38 66.1333 126.77 63.8C128.159 61.4667 129.582 58.9667 131.038 56.3C132.031 54.5 132.958 53 133.818 51.8C134.678 50.6 135.903 50 137.491 50C138.219 50 138.947 50.1 139.675 50.3C140.403 50.5 141.164 50.5333 141.959 50.4C141.429 50.9333 140.701 51.9333 139.775 53.4C138.914 54.8667 137.988 56.5333 136.995 58.4C136.002 60.2667 135.109 62.1667 134.314 64.1C133.52 66.0333 132.958 67.7 132.627 69.1C132.561 69.5 132.461 70.0667 132.329 70.8C132.263 71.5333 132.23 72.0667 132.23 72.4C132.23 74.2667 132.759 75.2 133.818 75.2C134.877 75.2 136.002 74.5667 137.193 73.3C138.451 72.0333 139.675 70.4667 140.867 68.6C142.058 66.7333 143.15 64.8667 144.143 63C145.135 61.0667 145.93 59.5 146.525 58.3C146.79 57.6333 147.187 57.3 147.717 57.3C148.047 57.3 148.213 57.5333 148.213 58C148.213 58.2 148.114 58.5667 147.915 59.1C147.121 60.7667 146.161 62.6667 145.036 64.8C143.911 66.8667 142.687 68.9 141.363 70.9C140.039 72.8333 138.649 74.4667 137.193 75.8C135.804 77.0667 134.381 77.7667 132.925 77.9ZM158.196 77.7C156.939 77.7 155.681 77.2 154.424 76.2C153.166 75.1333 152.538 73.4333 152.538 71.1C152.538 69.3 152.968 67.2333 153.828 64.9C154.622 62.6333 155.681 60.4333 157.005 58.3C158.395 56.1667 159.387 54.4333 159.983 53.1C160.182 52.5667 160.281 52.1 160.281 51.7C160.281 50.5 159.52 49.6333 157.998 49.1C156.542 48.5667 154.622 48.2667 152.24 48.2L151.048 51.5C150.32 53.6333 149.295 56.1333 147.971 59C146.713 61.8667 145.29 64.6333 143.702 67.3C142.18 69.9667 140.591 72.1 138.937 73.7C138.805 73.8333 138.639 73.9 138.441 73.9C138.176 73.9 138.01 73.7333 137.944 73.4C137.812 73.0667 137.944 72.6667 138.341 72.2C140.922 68.7333 143.239 64.9 145.29 60.7C147.342 56.4333 149.063 52.1 150.453 47.7C151.909 43.3 152.968 39.2333 153.63 35.5C153.828 34.4333 154.192 33.6667 154.722 33.2C155.251 32.6667 155.814 32.4 156.409 32.4C157.27 32.4 158.064 32.8333 158.792 33.7C159.52 34.5 159.884 35.6667 159.884 37.2C159.884 37.4667 159.851 37.7667 159.785 38.1C159.785 38.4333 159.751 38.7667 159.685 39.1C159.421 40.5 158.626 41.8333 157.303 43.1C156.045 44.3 155.019 45.2 154.225 45.8C154.887 45.8667 155.582 45.9333 156.31 46C157.038 46 157.832 46 158.693 46C161.803 46 164.881 45.8 167.925 45.4C168.057 45.8 168.124 46.1 168.124 46.3C168.124 47.1667 167.859 48.2667 167.329 49.6C166.866 50.9333 166.37 52.1333 165.84 53.2C165.576 53.8 165.046 54.9 164.252 56.5C163.458 58.0333 162.597 59.8 161.671 61.8C160.744 63.7333 159.95 65.6667 159.288 67.6C158.693 69.4667 158.395 71.0667 158.395 72.4C158.395 74.1333 159.057 75 160.38 75C161.373 75 162.465 74.3667 163.656 73.1C164.848 71.7667 166.006 70.1667 167.131 68.3C168.322 66.3667 169.381 64.5 170.308 62.7C171.3 60.8333 172.062 59.3667 172.591 58.3C172.856 57.6333 173.22 57.3 173.683 57.3C173.948 57.3 174.08 57.5333 174.08 58C174.08 58.2667 173.981 58.6667 173.782 59.2C173.054 60.7333 172.194 62.4667 171.201 64.4C170.208 66.3333 169.083 68.2333 167.826 70.1C166.635 71.9667 165.311 73.6 163.855 75C162.465 76.3333 160.943 77.2 159.288 77.6C159.09 77.6667 158.726 77.7 158.196 77.7ZM193.712 77.9C192.984 77.9667 192.156 77.8 191.23 77.4C190.303 77 189.476 76.2667 188.748 75.2C188.086 74.1333 187.755 72.6333 187.755 70.7C187.755 69.1 188.053 67.1667 188.649 64.9C187.854 66.1667 186.829 67.7333 185.571 69.6C184.314 71.4 182.957 73 181.501 74.4C180.243 75.6 179.052 76.4667 177.927 77C176.802 77.5333 175.776 77.8 174.85 77.8C173.129 77.8 171.739 77.0333 170.68 75.5C169.621 73.9 169.092 71.8333 169.092 69.3C169.092 66.6333 169.753 63.6 171.077 60.2C172.401 56.8 174.552 53.2667 177.53 49.6C179.449 47.2667 181.766 45.4 184.479 44C187.259 42.5333 189.972 41.8 192.62 41.8C194.142 41.8 195.598 42.0667 196.988 42.6C198.378 43.0667 199.602 43.8667 200.661 45C201.124 45.4667 201.356 46 201.356 46.6C201.356 47 201.19 47.3333 200.859 47.6C200.529 47.8667 200.098 47.9333 199.569 47.8C198.841 45.4667 197.286 44.3 194.903 44.3C193.778 44.3 192.487 44.6667 191.031 45.4C188.781 46.6 186.432 48.5667 183.983 51.3C181.6 54.0333 179.515 56.8667 177.728 59.8C177.464 60.2 177.034 60.9667 176.438 62.1C175.908 63.2333 175.379 64.5 174.85 65.9C174.32 67.3 173.956 68.6667 173.757 70C173.691 70.4 173.658 70.7 173.658 70.9C173.658 71.0333 173.658 71.2667 173.658 71.6C173.658 73.8 174.486 74.9 176.14 74.9C178.126 74.9 180.376 73.4333 182.891 70.5C184.612 68.3667 186.167 66.1333 187.557 63.8C188.946 61.4667 190.369 58.9667 191.825 56.3C192.818 54.5 193.745 53 194.605 51.8C195.466 50.6 196.69 50 198.278 50C199.006 50 199.734 50.1 200.462 50.3C201.19 50.5 201.951 50.5333 202.746 50.4C202.216 50.9333 201.488 51.9333 200.562 53.4C199.701 54.8667 198.775 56.5333 197.782 58.4C196.789 60.2667 195.896 62.1667 195.102 64.1C194.307 66.0333 193.745 67.7 193.414 69.1C193.348 69.5 193.248 70.0667 193.116 70.8C193.05 71.5333 193.017 72.0667 193.017 72.4C193.017 74.2667 193.546 75.2 194.605 75.2C195.664 75.2 196.789 74.5667 197.98 73.3C199.238 72.0333 200.462 70.4667 201.654 68.6C202.845 66.7333 203.937 64.8667 204.93 63C205.922 61.0667 206.717 59.5 207.312 58.3C207.577 57.6333 207.974 57.3 208.504 57.3C208.835 57.3 209 57.5333 209 58C209 58.2 208.901 58.5667 208.702 59.1C207.908 60.7667 206.948 62.6667 205.823 64.8C204.698 66.8667 203.474 68.9 202.15 70.9C200.826 72.8333 199.437 74.4667 197.98 75.8C196.591 77.0667 195.168 77.7667 193.712 77.9Z" fill="#F8F3F3"/>
<path d="M74.336 115.936C73.984 115.936 73.64 115.912 73.304 115.864C72.296 115.736 71.552 115.44 71.072 114.976C70.608 114.512 70.376 114.008 70.376 113.464C70.376 112.872 70.64 112.336 71.168 111.856C71.712 111.376 72.472 111.136 73.448 111.136C73.752 111.136 74.072 111.168 74.408 111.232C74.76 111.28 75.128 111.368 75.512 111.496C75.704 111.56 75.8 111.648 75.8 111.76C75.8 111.824 75.752 111.856 75.656 111.856C75.56 111.856 75.48 111.84 75.416 111.808C75.16 111.712 74.912 111.648 74.672 111.616C74.448 111.568 74.232 111.544 74.024 111.544C73.336 111.544 72.808 111.744 72.44 112.144C72.088 112.528 71.912 112.952 71.912 113.416C71.912 113.864 72.096 114.272 72.464 114.64C72.832 115.008 73.416 115.192 74.216 115.192C75.224 115.192 76.152 114.96 77 114.496C77.864 114.032 78.68 113.424 79.448 112.672C80.264 111.872 81.008 110.912 81.68 109.792C82.352 108.656 83.016 107.448 83.672 106.168C84.344 104.872 85.072 103.568 85.856 102.256C86.64 100.944 87.544 99.712 88.568 98.56C88.776 98.336 88.984 98.104 89.192 97.864C89.416 97.608 89.632 97.392 89.84 97.216C89.296 97.136 88.736 97.08 88.16 97.048C87.584 97 87.016 96.976 86.456 96.976C85.624 96.976 84.832 97.016 84.08 97.096C83.344 97.16 82.608 97.256 81.872 97.384C81.12 97.528 80.28 97.752 79.352 98.056C78.424 98.36 77.52 98.76 76.64 99.256C75.776 99.736 75.032 100.32 74.408 101.008C73.8 101.696 73.424 102.488 73.28 103.384C73.264 103.464 73.248 103.552 73.232 103.648C73.232 103.728 73.232 103.808 73.232 103.888C73.232 104.624 73.48 105.232 73.976 105.712C74.488 106.192 75.08 106.432 75.752 106.432C76.248 106.432 76.728 106.304 77.192 106.048C77.656 105.776 78.072 105.424 78.44 104.992C78.808 104.544 79.08 104.056 79.256 103.528C79.272 103.368 79.336 103.288 79.448 103.288C79.544 103.288 79.592 103.376 79.592 103.552C79.576 104.256 79.368 104.864 78.968 105.376C78.584 105.888 78.096 106.28 77.504 106.552C76.912 106.808 76.312 106.936 75.704 106.936C75.08 106.936 74.488 106.808 73.928 106.552C73.368 106.28 72.912 105.888 72.56 105.376C72.208 104.848 72.032 104.2 72.032 103.432C72.032 102.536 72.248 101.744 72.68 101.056C73.128 100.368 73.72 99.768 74.456 99.256C75.192 98.728 75.992 98.288 76.856 97.936C77.72 97.568 78.584 97.28 79.448 97.072C80.312 96.848 81.096 96.68 81.8 96.568C82.52 96.456 83.264 96.368 84.032 96.304C84.816 96.24 85.608 96.208 86.408 96.208C87.096 96.208 87.784 96.24 88.472 96.304C89.16 96.368 89.832 96.464 90.488 96.592C90.76 96.384 91.04 96.2 91.328 96.04C91.616 95.88 91.936 95.736 92.288 95.608C92.512 95.512 92.68 95.464 92.792 95.464C92.888 95.464 92.936 95.496 92.936 95.56C92.936 95.672 92.808 95.808 92.552 95.968C92.424 96.032 92.264 96.144 92.072 96.304C91.88 96.464 91.672 96.648 91.448 96.856C92.488 97.112 93.424 97.496 94.256 98.008C95.168 98.552 95.816 99.128 96.2 99.736C96.6 100.344 96.8 100.968 96.8 101.608C96.8 102.344 96.576 103.08 96.128 103.816C95.68 104.536 95.096 105.208 94.376 105.832C93.656 106.456 92.864 107 92 107.464C91.136 107.912 90.28 108.24 89.432 108.448C88.616 108.656 87.792 108.808 86.96 108.904C86.128 109 85.384 109.048 84.728 109.048C84.616 109.048 84.496 109.048 84.368 109.048C84.256 109.048 84.144 109.04 84.032 109.024C83.488 109.792 82.928 110.544 82.352 111.28C81.776 112 81.128 112.704 80.408 113.392C79.528 114.224 78.568 114.856 77.528 115.288C76.488 115.72 75.424 115.936 74.336 115.936ZM84.368 108.496C84.976 108.512 85.656 108.464 86.408 108.352C87.16 108.24 87.912 108.072 88.664 107.848C89.912 107.464 91.032 106.912 92.024 106.192C93.032 105.472 93.824 104.672 94.4 103.792C94.992 102.912 95.288 102.048 95.288 101.2C95.288 100.688 95.16 100.2 94.904 99.736C94.664 99.272 94.264 98.856 93.704 98.488C93.336 98.248 92.92 98.04 92.456 97.864C91.992 97.688 91.504 97.544 90.992 97.432C90.176 98.584 89.408 99.784 88.688 101.032C87.984 102.28 87.28 103.536 86.576 104.8C85.888 106.064 85.152 107.296 84.368 108.496ZM92.612 115C92.436 115 92.22 114.96 91.964 114.88C91.724 114.8 91.508 114.656 91.316 114.448C91.14 114.224 91.052 113.896 91.052 113.464C91.052 113.048 91.148 112.648 91.34 112.264C91.548 111.864 91.74 111.48 91.916 111.112C91.868 111.112 91.812 111.096 91.748 111.064C91.7 111.032 91.676 110.984 91.676 110.92C91.676 110.856 91.692 110.792 91.724 110.728C91.788 110.6 91.86 110.464 91.94 110.32C92.02 110.176 92.092 110.024 92.156 109.864C92.396 109.368 92.636 108.896 92.876 108.448C93.116 107.984 93.324 107.576 93.5 107.224C93.676 106.872 93.98 106.696 94.412 106.696H95.9C95.628 106.904 95.38 107.136 95.156 107.392C94.948 107.632 94.684 108.08 94.364 108.736C94.364 108.736 94.308 108.848 94.196 109.072C94.084 109.296 93.94 109.584 93.764 109.936C93.604 110.272 93.436 110.616 93.26 110.968C93.1 111.32 92.964 111.616 92.852 111.856C92.644 112.304 92.508 112.664 92.444 112.936C92.38 113.192 92.348 113.432 92.348 113.656C92.348 114.184 92.524 114.448 92.876 114.448C93.26 114.448 93.724 114.136 94.268 113.512C94.716 112.984 95.156 112.352 95.588 111.616C96.02 110.88 96.428 110.12 96.812 109.336C97.212 108.552 97.564 107.848 97.868 107.224C98.044 106.872 98.356 106.696 98.804 106.696H100.124C99.884 106.888 99.684 107.072 99.524 107.248C99.364 107.408 99.204 107.632 99.044 107.92C98.9 108.192 98.7 108.584 98.444 109.096C98.236 109.528 98.012 109.992 97.772 110.488C97.548 110.968 97.348 111.424 97.172 111.856C96.996 112.288 96.884 112.64 96.836 112.912C96.82 113.072 96.804 113.192 96.788 113.272C96.772 113.352 96.764 113.44 96.764 113.536C96.764 113.84 96.812 114.056 96.908 114.184C97.02 114.312 97.148 114.376 97.292 114.376C97.676 114.376 98.06 114.16 98.444 113.728C98.844 113.296 99.22 112.768 99.572 112.144C99.94 111.52 100.252 110.928 100.508 110.368C100.604 110.192 100.692 110.104 100.772 110.104C100.868 110.104 100.916 110.16 100.916 110.272C100.916 110.352 100.884 110.448 100.82 110.56C100.644 110.944 100.428 111.384 100.172 111.88C99.916 112.376 99.628 112.864 99.308 113.344C98.988 113.824 98.636 114.224 98.252 114.544C97.868 114.848 97.452 115 97.004 115C96.604 115 96.276 114.856 96.02 114.568C95.764 114.264 95.636 113.84 95.636 113.296C95.636 112.864 95.716 112.4 95.876 111.904C95.604 112.384 95.292 112.864 94.94 113.344C94.588 113.824 94.212 114.224 93.812 114.544C93.412 114.848 93.012 115 92.612 115ZM101.669 115.072C100.997 115.072 100.541 114.896 100.301 114.544C100.061 114.176 99.941 113.744 99.941 113.248C99.941 112.736 100.013 112.208 100.157 111.664C100.301 111.12 100.429 110.664 100.541 110.296C100.797 109.4 101.117 108.448 101.501 107.44C101.901 106.416 102.333 105.416 102.797 104.44C103.277 103.448 103.749 102.56 104.213 101.776C104.581 101.152 104.973 100.688 105.389 100.384C105.821 100.064 106.197 99.904 106.517 99.904C106.773 99.904 106.973 100 107.117 100.192C107.277 100.368 107.357 100.64 107.357 101.008C107.357 101.264 107.309 101.568 107.213 101.92C107.133 102.272 106.989 102.672 106.781 103.12C106.221 104.368 105.549 105.616 104.765 106.864C103.997 108.112 103.021 109.28 101.837 110.368C101.773 110.576 101.685 110.824 101.573 111.112C101.477 111.384 101.389 111.664 101.309 111.952C101.213 112.384 101.165 112.752 101.165 113.056C101.165 113.552 101.261 113.928 101.453 114.184C101.661 114.424 101.909 114.544 102.197 114.544C102.453 114.544 102.725 114.456 103.013 114.28C103.301 114.088 103.573 113.816 103.829 113.464C104.213 112.904 104.557 112.336 104.861 111.76C105.181 111.168 105.421 110.712 105.581 110.392C105.677 110.216 105.781 110.128 105.893 110.128C105.973 110.128 106.013 110.176 106.013 110.272C106.013 110.352 105.989 110.44 105.941 110.536C105.797 110.856 105.605 111.272 105.365 111.784C105.141 112.28 104.853 112.784 104.501 113.296C104.165 113.792 103.757 114.216 103.277 114.568C102.813 114.904 102.277 115.072 101.669 115.072ZM102.029 109.6C102.605 109.008 103.165 108.328 103.709 107.56C104.253 106.776 104.757 105.968 105.221 105.136C105.701 104.288 106.101 103.488 106.421 102.736C106.533 102.496 106.621 102.232 106.685 101.944C106.765 101.656 106.805 101.416 106.805 101.224C106.805 101 106.749 100.888 106.637 100.888C106.573 100.888 106.477 100.952 106.349 101.08C106.221 101.192 106.053 101.392 105.845 101.68C105.541 102.08 105.205 102.624 104.837 103.312C104.485 104 104.125 104.736 103.757 105.52C103.389 106.304 103.053 107.064 102.749 107.8C102.445 108.52 102.205 109.12 102.029 109.6ZM106.13 115.096C105.346 115.096 104.786 114.896 104.45 114.496C104.13 114.08 103.97 113.648 103.97 113.2C103.97 112.832 104.058 112.496 104.234 112.192C104.426 111.888 104.65 111.728 104.906 111.712C105.226 111.088 105.57 110.408 105.938 109.672C106.322 108.936 106.674 108.224 106.994 107.536C107.218 107.072 107.498 106.624 107.834 106.192C108.186 105.76 108.57 105.512 108.986 105.448H109.226C109.354 105.448 109.466 105.456 109.562 105.472C109.674 105.488 109.786 105.52 109.898 105.568C110.074 105.648 110.162 105.768 110.162 105.928C110.162 106.024 110.106 106.072 109.994 106.072C109.946 106.072 109.882 106.048 109.802 106C109.61 105.92 109.442 105.88 109.298 105.88C109.202 105.88 109.114 105.904 109.034 105.952C108.73 106.112 108.514 106.336 108.386 106.624C108.274 106.912 108.218 107.216 108.218 107.536C108.218 107.792 108.242 108.056 108.29 108.328C108.354 108.584 108.426 108.816 108.506 109.024C108.682 109.472 108.866 109.912 109.058 110.344C109.266 110.776 109.37 111.24 109.37 111.736C109.37 112.216 109.21 112.728 108.89 113.272C108.57 113.8 108.162 114.224 107.666 114.544L107.834 114.568C107.914 114.584 107.97 114.592 108.002 114.592C108.034 114.592 108.058 114.592 108.074 114.592C108.442 114.592 108.786 114.488 109.106 114.28C109.442 114.056 109.738 113.784 109.994 113.464C110.25 113.144 110.538 112.696 110.858 112.12C111.194 111.544 111.514 110.936 111.818 110.296C111.866 110.216 111.922 110.176 111.986 110.176C112.066 110.176 112.122 110.208 112.154 110.272C112.202 110.32 112.21 110.384 112.178 110.464C111.97 110.912 111.73 111.4 111.458 111.928C111.202 112.44 110.906 112.936 110.57 113.416C110.234 113.88 109.842 114.264 109.394 114.568C108.962 114.856 108.474 115 107.93 115C107.802 115 107.666 114.992 107.522 114.976C107.378 114.96 107.234 114.928 107.09 114.88C106.93 114.944 106.762 114.992 106.586 115.024C106.426 115.072 106.274 115.096 106.13 115.096ZM106.85 114.376C107.122 114.152 107.362 113.824 107.57 113.392C107.794 112.96 107.906 112.392 107.906 111.688C107.906 111.064 107.842 110.4 107.714 109.696C107.586 108.992 107.522 108.368 107.522 107.824C107.522 107.712 107.522 107.616 107.522 107.536C107.538 107.44 107.554 107.352 107.57 107.272C107.362 107.704 107.122 108.208 106.85 108.784C106.578 109.344 106.306 109.888 106.034 110.416C105.762 110.944 105.53 111.392 105.338 111.76C105.338 111.76 105.378 111.768 105.458 111.784C105.554 111.784 105.642 111.84 105.722 111.952C105.802 112.048 105.834 112.248 105.818 112.552C105.802 112.952 105.89 113.328 106.082 113.68C106.29 114.016 106.546 114.248 106.85 114.376ZM105.938 114.712C106.034 114.712 106.122 114.704 106.202 114.688C106.282 114.656 106.354 114.632 106.418 114.616C106.178 114.44 105.962 114.208 105.77 113.92C105.594 113.616 105.49 113.232 105.458 112.768C105.17 113.072 105.026 113.4 105.026 113.752C105.026 114.008 105.106 114.232 105.266 114.424C105.426 114.616 105.65 114.712 105.938 114.712ZM113.446 115.096C112.854 115.096 112.318 114.904 111.838 114.52C111.374 114.136 111.142 113.552 111.142 112.768C111.142 112.048 111.318 111.28 111.67 110.464C112.022 109.632 112.47 108.904 113.014 108.28C113.478 107.736 113.998 107.288 114.574 106.936C115.15 106.584 115.694 106.408 116.206 106.408C116.558 106.408 116.862 106.504 117.118 106.696C117.39 106.904 117.526 107.2 117.526 107.584C117.526 107.984 117.374 108.424 117.07 108.904C116.766 109.384 116.334 109.832 115.774 110.248C115.534 110.424 115.23 110.592 114.862 110.752C114.494 110.912 114.126 111.048 113.758 111.16C113.39 111.256 113.086 111.304 112.846 111.304C112.766 111.496 112.686 111.752 112.606 112.072C112.542 112.392 112.51 112.72 112.51 113.056C112.51 113.456 112.59 113.816 112.75 114.136C112.91 114.456 113.206 114.616 113.638 114.616C114.166 114.616 114.646 114.464 115.078 114.16C115.51 113.856 115.894 113.48 116.23 113.032C116.566 112.568 116.846 112.104 117.07 111.64C117.31 111.176 117.502 110.784 117.646 110.464C117.742 110.24 117.87 110.128 118.03 110.128C118.11 110.128 118.15 110.168 118.15 110.248C118.15 110.312 118.126 110.392 118.078 110.488C117.854 110.968 117.614 111.48 117.358 112.024C117.102 112.552 116.798 113.056 116.446 113.536C116.094 114 115.67 114.376 115.174 114.664C114.694 114.952 114.118 115.096 113.446 115.096ZM113.014 110.872C113.238 110.872 113.614 110.792 114.142 110.632C114.67 110.456 115.15 110.184 115.582 109.816C115.998 109.448 116.318 109.048 116.542 108.616C116.766 108.168 116.878 107.792 116.878 107.488C116.878 107.136 116.75 106.96 116.494 106.96C116.302 106.96 116.038 107.088 115.702 107.344C115.366 107.6 114.95 108.032 114.454 108.64C114.15 109.024 113.862 109.44 113.59 109.888C113.318 110.336 113.126 110.664 113.014 110.872ZM120.552 115.024C120.248 115.024 119.944 114.904 119.64 114.664C119.336 114.408 119.184 114 119.184 113.44C119.184 113.008 119.288 112.512 119.496 111.952C119.688 111.408 119.944 110.88 120.264 110.368C120.6 109.856 120.84 109.44 120.984 109.12C121.032 108.992 121.056 108.88 121.056 108.784C121.056 108.496 120.872 108.288 120.504 108.16C120.152 108.032 119.688 107.96 119.112 107.944L118.824 108.736C118.648 109.248 118.4 109.848 118.08 110.536C117.776 111.224 117.432 111.888 117.048 112.528C116.68 113.168 116.296 113.68 115.896 114.064C115.864 114.096 115.824 114.112 115.776 114.112C115.712 114.112 115.672 114.072 115.656 113.992C115.624 113.912 115.656 113.816 115.752 113.704C116.376 112.872 116.936 111.952 117.432 110.944C117.928 109.92 118.344 108.88 118.68 107.824C119.032 106.768 119.288 105.792 119.448 104.896C119.496 104.64 119.584 104.456 119.712 104.344C119.84 104.216 119.976 104.152 120.12 104.152C120.328 104.152 120.52 104.256 120.696 104.464C120.872 104.656 120.96 104.936 120.96 105.304C120.96 105.368 120.952 105.44 120.936 105.52C120.936 105.6 120.928 105.68 120.912 105.76C120.848 106.096 120.656 106.416 120.336 106.72C120.032 107.008 119.784 107.224 119.592 107.368C119.752 107.384 119.92 107.4 120.096 107.416C120.272 107.416 120.464 107.416 120.672 107.416C121.424 107.416 122.168 107.368 122.904 107.272C122.936 107.368 122.952 107.44 122.952 107.488C122.952 107.696 122.888 107.96 122.76 108.28C122.648 108.6 122.528 108.888 122.4 109.144C122.336 109.288 122.208 109.552 122.016 109.936C121.824 110.304 121.616 110.728 121.392 111.208C121.168 111.672 120.976 112.136 120.816 112.6C120.672 113.048 120.6 113.432 120.6 113.752C120.6 114.168 120.76 114.376 121.08 114.376C121.32 114.376 121.584 114.224 121.872 113.92C122.16 113.6 122.44 113.216 122.712 112.768C123 112.304 123.256 111.856 123.48 111.424C123.72 110.976 123.904 110.624 124.032 110.368C124.096 110.208 124.184 110.128 124.296 110.128C124.36 110.128 124.392 110.184 124.392 110.296C124.392 110.36 124.368 110.456 124.32 110.584C124.144 110.952 123.936 111.368 123.696 111.832C123.456 112.296 123.184 112.752 122.88 113.2C122.592 113.648 122.272 114.04 121.92 114.376C121.584 114.696 121.216 114.904 120.816 115C120.768 115.016 120.68 115.024 120.552 115.024ZM129.137 115.072C128.961 115.088 128.761 115.048 128.537 114.952C128.313 114.856 128.113 114.68 127.937 114.424C127.777 114.168 127.697 113.808 127.697 113.344C127.697 112.96 127.769 112.496 127.913 111.952C127.721 112.256 127.473 112.632 127.169 113.08C126.865 113.512 126.537 113.896 126.185 114.232C125.881 114.52 125.593 114.728 125.321 114.856C125.049 114.984 124.801 115.048 124.577 115.048C124.161 115.048 123.825 114.864 123.569 114.496C123.313 114.112 123.185 113.616 123.185 113.008C123.185 112.368 123.345 111.64 123.665 110.824C123.985 110.008 124.505 109.16 125.225 108.28C125.689 107.72 126.249 107.272 126.905 106.936C127.577 106.584 128.233 106.408 128.873 106.408C129.241 106.408 129.593 106.472 129.929 106.6C130.265 106.712 130.561 106.904 130.817 107.176C130.929 107.288 130.985 107.416 130.985 107.56C130.985 107.656 130.945 107.736 130.865 107.8C130.785 107.864 130.681 107.88 130.553 107.848C130.377 107.288 130.001 107.008 129.425 107.008C129.153 107.008 128.841 107.096 128.489 107.272C127.945 107.56 127.377 108.032 126.785 108.688C126.209 109.344 125.705 110.024 125.273 110.728C125.209 110.824 125.105 111.008 124.961 111.28C124.833 111.552 124.705 111.856 124.577 112.192C124.449 112.528 124.361 112.856 124.313 113.176C124.297 113.272 124.289 113.344 124.289 113.392C124.289 113.424 124.289 113.48 124.289 113.56C124.289 114.088 124.489 114.352 124.889 114.352C125.369 114.352 125.913 114 126.521 113.296C126.937 112.784 127.313 112.248 127.649 111.688C127.985 111.128 128.329 110.528 128.681 109.888C128.921 109.456 129.145 109.096 129.353 108.808C129.561 108.52 129.857 108.376 130.241 108.376C130.417 108.376 130.593 108.4 130.769 108.448C130.945 108.496 131.129 108.504 131.321 108.472C131.193 108.6 131.017 108.84 130.793 109.192C130.585 109.544 130.361 109.944 130.121 110.392C129.881 110.84 129.665 111.296 129.473 111.76C129.281 112.224 129.145 112.624 129.065 112.96C129.049 113.056 129.025 113.192 128.993 113.368C128.977 113.544 128.969 113.672 128.969 113.752C128.969 114.2 129.097 114.424 129.353 114.424C129.609 114.424 129.881 114.272 130.169 113.968C130.473 113.664 130.769 113.288 131.057 112.84C131.345 112.392 131.609 111.944 131.849 111.496C132.089 111.032 132.281 110.656 132.425 110.368C132.489 110.208 132.585 110.128 132.713 110.128C132.793 110.128 132.833 110.184 132.833 110.296C132.833 110.344 132.809 110.432 132.761 110.56C132.569 110.96 132.337 111.416 132.065 111.928C131.793 112.424 131.497 112.912 131.177 113.392C130.857 113.856 130.521 114.248 130.169 114.568C129.833 114.872 129.489 115.04 129.137 115.072ZM132.943 115.096C132.159 115.096 131.599 114.896 131.263 114.496C130.943 114.08 130.783 113.648 130.783 113.2C130.783 112.832 130.871 112.496 131.047 112.192C131.239 111.888 131.463 111.728 131.719 111.712C132.039 111.088 132.383 110.408 132.751 109.672C133.135 108.936 133.487 108.224 133.807 107.536C134.031 107.072 134.311 106.624 134.647 106.192C134.999 105.76 135.383 105.512 135.799 105.448H136.039C136.167 105.448 136.279 105.456 136.375 105.472C136.487 105.488 136.599 105.52 136.711 105.568C136.887 105.648 136.975 105.768 136.975 105.928C136.975 106.024 136.919 106.072 136.807 106.072C136.759 106.072 136.695 106.048 136.615 106C136.423 105.92 136.255 105.88 136.111 105.88C136.015 105.88 135.927 105.904 135.847 105.952C135.543 106.112 135.327 106.336 135.199 106.624C135.087 106.912 135.031 107.216 135.031 107.536C135.031 107.792 135.055 108.056 135.103 108.328C135.167 108.584 135.239 108.816 135.319 109.024C135.495 109.472 135.679 109.912 135.871 110.344C136.079 110.776 136.183 111.24 136.183 111.736C136.183 112.216 136.023 112.728 135.703 113.272C135.383 113.8 134.975 114.224 134.479 114.544L134.647 114.568C134.727 114.584 134.783 114.592 134.815 114.592C134.847 114.592 134.871 114.592 134.887 114.592C135.255 114.592 135.599 114.488 135.919 114.28C136.255 114.056 136.551 113.784 136.807 113.464C137.063 113.144 137.351 112.696 137.671 112.12C138.007 111.544 138.327 110.936 138.631 110.296C138.679 110.216 138.735 110.176 138.799 110.176C138.879 110.176 138.935 110.208 138.967 110.272C139.015 110.32 139.023 110.384 138.991 110.464C138.783 110.912 138.543 111.4 138.271 111.928C138.015 112.44 137.719 112.936 137.383 113.416C137.047 113.88 136.655 114.264 136.207 114.568C135.775 114.856 135.287 115 134.743 115C134.615 115 134.479 114.992 134.335 114.976C134.191 114.96 134.047 114.928 133.903 114.88C133.743 114.944 133.575 114.992 133.399 115.024C133.239 115.072 133.087 115.096 132.943 115.096ZM133.663 114.376C133.935 114.152 134.175 113.824 134.383 113.392C134.607 112.96 134.719 112.392 134.719 111.688C134.719 111.064 134.655 110.4 134.527 109.696C134.399 108.992 134.335 108.368 134.335 107.824C134.335 107.712 134.335 107.616 134.335 107.536C134.351 107.44 134.367 107.352 134.383 107.272C134.175 107.704 133.935 108.208 133.663 108.784C133.391 109.344 133.119 109.888 132.847 110.416C132.575 110.944 132.343 111.392 132.151 111.76C132.151 111.76 132.191 111.768 132.271 111.784C132.367 111.784 132.455 111.84 132.535 111.952C132.615 112.048 132.647 112.248 132.631 112.552C132.615 112.952 132.703 113.328 132.895 113.68C133.103 114.016 133.359 114.248 133.663 114.376ZM132.751 114.712C132.847 114.712 132.935 114.704 133.015 114.688C133.095 114.656 133.167 114.632 133.231 114.616C132.991 114.44 132.775 114.208 132.583 113.92C132.407 113.616 132.303 113.232 132.271 112.768C131.983 113.072 131.839 113.4 131.839 113.752C131.839 114.008 131.919 114.232 132.079 114.424C132.239 114.616 132.463 114.712 132.751 114.712Z" fill="#F8F3F3"/>
</svg>
